<svg width="600" height="600" viewBox="0 0 600 600" fill="none" xmlns="http://www.w3.org/2000/svg">
<g clip-path="url(#clip0_909_173)">
<path d="M600 558.13V553.8C599.52 556.16 599 558.15 598.4 559.95C596.4 565.98 593.8 568.21 590.21 566.54C571.24 557.69 556.5 542.4 556.5 527C556.5 510.8 550.13 495.01 539.4 480.7C537.52 478.2 535.74 476.3 533.87 474.7C533.14 474.08 532.42 473.52 531.57 472.9L529.57 471.47C525.89 468.79 524.25 466.19 522.49 458.88C521.74 455.81 521.11 453.86 518.29 445.62L517.66 443.74C514.42 434.16 513.1 428.77 513.49 425.09C513.97 420.66 517.29 419.86 524.79 423.45C527.762 424.868 530.818 426.104 533.94 427.15C547.83 431.82 560.9 432.95 576.6 432.57L578.55 432.52L580 432.5C585.161 432.502 590.273 433.507 595.05 435.46C596.821 436.208 598.485 437.186 600 438.37V437.11C598.583 436.087 597.057 435.225 595.45 434.54C590.089 432.342 584.321 431.313 578.53 431.52L576.58 431.57C560.98 431.95 548.01 430.82 534.26 426.2C531.175 425.168 528.156 423.949 525.22 422.55C517.18 418.71 513.06 419.7 512.5 424.98C512.08 428.87 513.42 434.32 516.71 444.06L517.35 445.94C520.15 454.14 520.78 456.09 521.51 459.12C523.33 466.64 525.1 469.46 528.98 472.28L530.98 473.71C531.82 474.31 532.52 474.86 533.23 475.46C535.233 477.2 537.034 479.159 538.6 481.3C549.21 495.45 555.5 511.04 555.5 527C555.5 542.88 570.5 558.45 589.79 567.45C594.09 569.46 597.18 566.79 599.35 560.27C599.58 559.59 599.79 558.88 600 558.14V558.13ZM600 495.97V493.52L598.54 496.79C596.44 501.59 595.08 507.12 594.28 513.56C593.62 518.86 593.44 522.86 593.24 532.06C593.04 541.38 592.74 544.81 591.61 547.11C590.33 549.71 587.94 549.46 583.32 545.61C566.18 531.31 561.5 522.71 561.5 506.99C561.5 499.82 560.4 494.6 557.8 489.31C555.53 484.64 554.15 482.69 544.4 469.69C542.115 466.554 539.573 463.614 536.8 460.9C535.674 459.819 534.493 458.798 533.26 457.84C532.88 457.54 532.62 457.32 532.37 457.1C531.276 456.184 530.381 455.054 529.74 453.78C528.812 451.871 528.056 449.883 527.48 447.84L527.11 446.64L526.75 445.49C526.46 444.58 526.27 443.94 526.09 443.33C525.64 441.8 525.35 440.65 525.18 439.67C524.8 437.47 525.06 436.18 526.03 435.52C528.38 433.91 535.31 435.28 549.83 440.46C559.37 443.86 565.95 444.63 577.68 444.72C585.39 444.78 588.11 445.12 590.93 446.84C594.41 448.96 596.77 453.24 598.51 461.1C599.01 463.3 599.5 465.29 600 467.08V463.1L599.49 460.88C597.69 452.78 595.21 448.28 591.45 445.98C588.41 444.13 585.59 443.78 577.68 443.72C566.07 443.63 559.58 442.88 550.17 439.52C535.24 434.2 528.22 432.81 525.47 434.69C524.09 435.63 523.76 437.29 524.19 439.84C524.43 441.117 524.744 442.379 525.13 443.62L525.79 445.79L526.15 446.94L526.52 448.14C527.114 450.239 527.893 452.28 528.85 454.24C529.65 455.77 530.46 456.76 531.71 457.85L532.63 458.62L533.65 459.45C534.55 460.19 535.3 460.85 536.12 461.63C538.849 464.304 541.351 467.201 543.6 470.29C553.3 483.22 554.67 485.16 556.91 489.75C559.43 494.9 560.5 499.97 560.5 506.99C560.5 523.03 565.32 531.9 582.68 546.37C587.72 550.57 590.86 550.92 592.51 547.55C593.73 545.05 594.03 541.61 594.24 532.08C594.44 522.92 594.62 518.93 595.27 513.68C596.06 507.34 597.39 501.88 599.46 497.19L600 495.98V495.97ZM600 207.87C592.69 207.71 588.5 211.2 588.5 219C588.5 230.41 593.55 247.35 600 260.5V258.2C594.07 245.48 589.5 229.73 589.5 219C589.5 211.82 593.2 208.7 600 208.87V207.87ZM600 214.92C598.77 215.06 597.82 215.5 597.13 216.23C595.73 217.71 595.53 219.95 595.97 223.81L596.13 225.11C596.341 226.397 596.464 227.696 596.5 229C596.5 232.2 597.98 238.52 600 244.9V241.45C598.51 236.32 597.5 231.58 597.5 229C597.5 228.02 597.42 227.25 597.13 224.98L596.97 223.69C596.55 220.13 596.73 218.1 597.85 216.92C598.35 216.39 599.06 216.05 600 215.92V214.92ZM600 410.9V409.43C598.812 407.997 597.814 406.418 597.03 404.73C595.71 402.03 594.35 398.45 592.47 392.84C584.62 369.29 584.64 366.24 592.22 362.44C594.47 361.32 597.02 361.01 600 361.53V360.51C597.22 359.958 594.335 360.323 591.78 361.55C583.54 365.67 583.52 369.15 591.53 393.15C593.41 398.81 594.78 402.42 596.13 405.17C597.092 407.282 598.4 409.219 600 410.9ZM566.36 452C564.68 452 563.32 451.77 558.02 450.69L555.64 450.22C547.38 448.65 542.92 448.92 541.11 452.55C539.73 455.3 541.58 458.41 545.86 462.23C547.494 463.659 549.189 465.017 550.94 466.3C551.88 467 555.83 469.89 556.73 470.57C558.59 471.97 559.7 472.94 560.2 473.6C561.457 475.263 562.434 477.121 563.09 479.1C563.02 478.9 567.11 492.75 570.05 501.32C572.75 509.17 575.61 512.04 578.87 509.91C580.98 508.51 582.53 505.67 585.47 498.88C587.45 494.26 587.97 493.12 588.87 491.48C593.42 483.3 592.77 467.58 588.92 458.61C588.347 457.113 587.408 455.783 586.188 454.742C584.969 453.701 583.509 452.982 581.94 452.65C579.35 451.99 577.08 451.9 570.16 451.98L566.36 452ZM566.36 454C567.49 454 568.45 454 570.18 453.98C582.25 453.85 585.01 454.55 587.08 459.39C590.71 467.86 591.34 482.94 587.13 490.51C586.17 492.24 585.65 493.39 583.63 498.09C580.91 504.39 579.39 507.17 577.77 508.23C576.13 509.31 574.27 507.43 571.95 500.68C569.5 493.307 567.177 485.892 564.98 478.44C564.256 476.267 563.182 474.227 561.8 472.4C561.15 471.53 559.95 470.5 557.94 468.97C557.02 468.27 553.07 465.4 552.14 464.7C550.12 463.2 548.54 461.93 547.19 460.73C543.56 457.5 542.1 455.03 542.89 453.45C544.1 451.03 547.96 450.8 555.27 452.18L557.62 452.65C563.11 453.76 564.48 454 566.36 454ZM103.16 261.04C99.72 263.75 96.16 266.14 91.72 268.79C90.66 269.43 83.3 273.69 81.37 274.89C70.1 281.89 66.37 288.24 69.02 300.22C70.47 306.74 73.55 311.32 78.41 314.66C82.24 317.29 86.48 318.92 94.49 321.22C106.46 324.67 108.17 325.21 113.31 327.5C116.012 328.7 118.623 330.097 121.12 331.68C132.23 338.75 140.22 339.38 149.08 334.96C152.64 333.19 166.28 323.96 166.28 323.95C167.983 322.875 169.717 321.852 171.48 320.88C187.52 312.05 205.75 296.72 206 289.03C206.11 285.57 204.01 282.46 199.72 278.77C198.69 277.87 197.54 276.96 196.04 275.82C195.32 275.27 192.66 273.26 192.1 272.82C187.63 269.42 184.92 267.03 182.78 264.37C171.66 250.55 156.23 235.69 148.42 232.09C136.36 226.55 128.58 226.32 121.05 232.21C117.8 234.75 115.4 238.75 112.47 245.56C112.18 246.21 110.17 251.01 109.59 252.3C107.97 255.95 106.69 258.1 105.35 259.24C104.63 259.84 103.9 260.44 103.15 261.04H103.16ZM106.65 260.76C108.28 259.37 109.68 257.02 111.42 253.11C112 251.81 114.02 246.99 114.3 246.35C117.11 239.85 119.38 236.05 122.28 233.79C129.11 228.44 136.13 228.64 147.58 233.91C155.03 237.33 170.28 252.03 181.22 265.63C183.49 268.45 186.3 270.93 190.89 274.42L194.83 277.4C196.054 278.325 197.251 279.286 198.42 280.28C202.29 283.61 204.09 286.28 204 288.97C203.79 295.61 185.86 310.69 170.52 319.12C168.76 320.09 167.02 321.12 165.22 322.25C165.1 322.33 151.61 331.47 148.19 333.17C139.97 337.27 132.73 336.69 122.19 329.99C119.61 328.357 116.912 326.917 114.12 325.68C108.87 323.33 107.12 322.78 95.04 319.3C87.24 317.06 83.14 315.48 79.54 313C75.1 309.96 72.31 305.82 70.98 299.78C68.54 288.76 71.81 283.18 82.43 276.58C84.33 275.4 91.66 271.16 92.75 270.5C97.25 267.81 100.88 265.38 104.39 262.6C105.16 262 105.91 261.39 106.65 260.76ZM512.28 241.6C507.98 238.62 504.4 236.6 500.14 234.65C499.3 234.25 498.41 233.87 497.36 233.41L492.99 231.53C486.901 228.904 480.977 225.912 475.25 222.57C466.202 217.284 456.901 212.445 447.38 208.07C443.16 206.12 425.49 198.23 426.21 198.55C407.04 189.93 398.11 191.62 376.71 206.6C368.8 212.14 363.47 219.85 360.26 229.26C357.24 238.09 356.5 245.77 356.5 257.01C356.5 265.33 357.16 269.96 360.18 275.98C364.36 284.34 372.48 292.12 385.76 299.45C410.21 312.94 424.59 327 438.59 347.29C447.42 360.09 486.35 391.5 503.75 401.44C524.96 413.55 551.11 423.5 569 423.5C579.05 423.5 583.67 418.72 583.76 410.13C583.83 403.81 581.7 396.4 577.46 385.81C574.51 378.44 575.44 372.91 579.62 363.52C582.81 356.35 583.5 354.38 583.5 351C583.5 347.65 581.63 344.1 577.98 339.93C575.37 336.93 574.48 336.1 566.08 328.43C560.99 323.77 558 320.83 555.38 317.68C545.92 306.32 542.76 298.21 537.48 272.9C534.36 257.85 530.85 252.62 522.36 247.65C521.56 247.18 518.41 245.4 517.66 244.97C515.821 243.918 514.026 242.791 512.28 241.59V241.6ZM511.72 242.42C513.485 243.638 515.3 244.782 517.16 245.85L521.86 248.52C530.09 253.34 533.43 258.33 536.51 273.12C541.81 298.57 545.02 306.82 554.61 318.33C557.27 321.52 560.29 324.49 565.41 329.17C573.77 336.81 574.65 337.65 577.23 340.59C580.73 344.6 582.5 347.95 582.5 351.01C582.5 354.19 581.82 356.11 578.7 363.13C574.43 372.73 573.46 378.5 576.54 386.2C580.72 396.67 582.83 403.98 582.76 410.13C582.68 418.19 578.5 422.51 569 422.51C551.33 422.51 525.32 412.61 504.25 400.58C486.97 390.7 448.15 359.38 439.41 346.73C425.33 326.31 410.84 312.14 386.24 298.57C373.12 291.34 365.15 283.7 361.07 275.54C358.15 269.68 357.5 265.19 357.5 257.01C357.5 245.88 358.24 238.28 361.2 229.58C364.35 220.36 369.56 212.83 377.29 207.42C398.42 192.62 406.99 191 425.79 199.47C425.09 199.15 442.75 207.03 446.96 208.97C448.66 209.77 450.26 210.52 451.82 211.27C459.625 215.015 467.275 219.075 474.75 223.44C480.513 226.801 486.474 229.81 492.6 232.45L496.97 234.33C498.01 234.78 498.89 235.17 499.73 235.56C503.93 237.471 507.944 239.767 511.72 242.42ZM519.32 254.62C511.62 248.37 507.02 246.45 495.64 243.35C489.52 241.68 486.52 240.4 483.33 237.63C479.53 234.33 475.86 233.11 467.47 231.53C464.72 231.01 463.8 230.83 462.41 230.51C456.93 229.27 452.93 227.58 449.31 224.62C438.89 216.09 423.91 210.51 413 210.51C407.67 210.51 396.23 218.09 387.26 227.67C376.53 239.13 371.3 250.94 374.53 260.17C377.71 269.27 385.92 278.74 397.56 288.03C406 294.76 415.92 301.03 422.78 304.46C426.5 306.32 429.37 309.34 432.55 314.45C433.24 315.55 443.65 334.7 448.58 342.28C454.2 350.93 463.98 359.64 478.81 370.24C481.855 372.411 484.922 374.551 488.01 376.66C488.14 376.75 494.82 381.31 496.61 382.55C503.08 387.01 506.96 389.9 509.66 392.38C521.3 403.05 546.8 407.92 553.36 401.36C555.32 399.4 555.56 397.3 555.31 390.84C554.94 381.42 555.81 376.34 560.26 370.33C562.258 367.694 564.63 365.363 567.3 363.41C571.23 360.46 573.37 357.3 573.86 353.92C574.83 347.31 569.99 340.86 559.69 332.23C558.11 330.91 553.02 326.79 552.6 326.45C550.742 324.991 548.994 323.396 547.37 321.68C543.27 317.05 541.52 312.13 539.57 301.61C539.297 300.155 539.03 298.698 538.77 297.24C538.44 295.37 538.17 293.94 537.89 292.51C537.15 288.73 536.39 285.33 535.49 281.88C534.49 278.1 534.11 276.38 533.13 271.51C532.53 268.49 532.2 267.3 531.57 266.04C530.35 263.59 530.3 263.54 519.32 254.62ZM518.68 255.4C529.45 264.14 529.56 264.24 530.68 266.48C531.26 267.64 531.56 268.78 532.15 271.7C533.13 276.59 533.51 278.33 534.52 282.14C535.42 285.57 536.17 288.94 536.91 292.7C537.364 295.012 537.794 297.329 538.2 299.65L538.59 301.8C540.57 312.48 542.36 317.54 546.63 322.34C548.287 324.097 550.072 325.728 551.97 327.22C552.39 327.56 557.47 331.69 559.04 333C569.08 341.4 573.76 347.65 572.87 353.78C572.42 356.88 570.43 359.81 566.7 362.61C563.7 364.86 561.31 367.23 559.46 369.73C554.83 375.97 553.94 381.25 554.31 390.88C554.56 397.02 554.32 398.98 552.65 400.66C546.55 406.76 521.63 401.99 510.34 391.64C507.59 389.12 503.68 386.21 497.18 381.72L488.58 375.83C484.95 373.35 482.13 371.39 479.39 369.43C464.66 358.89 454.95 350.25 449.42 341.73C444.52 334.19 434.11 315.05 433.4 313.93C430.13 308.67 427.14 305.52 423.22 303.56C416.43 300.16 406.57 293.93 398.19 287.24C386.67 278.06 378.58 268.71 375.47 259.84C372.4 251.06 377.49 239.57 387.99 228.35C396.79 218.95 408.03 211.51 413 211.51C423.67 211.51 438.43 217.01 448.68 225.4C452.44 228.47 456.58 230.21 462.18 231.49C463.59 231.81 464.53 231.99 467.29 232.51C475.5 234.06 479.05 235.24 482.67 238.39C486.01 241.29 489.12 242.61 495.37 244.31C506.63 247.38 511.12 249.25 518.68 255.4ZM388 251.85C388 259.41 388.6 262.77 390.6 266.15C391.7 267.99 398.26 276.2 399.2 277.45C405.16 285.39 408.53 287.73 416.46 291.21C417.8 291.79 418.66 292.21 419.49 292.71C420.04 293.04 420.69 293.37 421.49 293.73C422.2 294.06 425.95 295.63 427.01 296.12C433.06 298.9 436 301.92 436 306.85C436 317.82 454.95 342.97 470.51 351.72C478.69 356.32 491.81 361.08 503.29 363.58C516.62 366.48 525.78 366.06 527.91 361.26C529.23 358.29 532.31 357 539.89 355.45L540.49 355.33C545.33 354.34 547.43 353.78 549.52 352.69C552.44 351.19 554 348.99 554 345.85C554 343.11 552.92 340.08 550.75 336.18C549.9 334.65 548.93 333.05 547.52 330.83C547.68 331.08 544.69 326.43 543.85 325.07C537.16 314.37 534 306.57 534 297.85C534 279.44 522.78 264.48 506.5 254.99C501.28 251.94 497.27 251.68 491.3 252.87C486.26 253.87 485.25 253.77 483.87 251.35C479.37 243.5 476.83 241.85 468 241.85C464.07 241.85 461.03 240.87 457.53 238.69C455.97 237.72 448.86 232.52 446.54 231.01C437.34 225.03 435.2 224.01 421.34 219.06C414.39 216.58 406.16 220.34 399.01 228.18C392.46 235.37 388 244.79 388 251.85ZM390 251.85C390 245.35 394.25 236.37 400.49 229.53C407.16 222.21 414.65 218.79 420.66 220.94C434.39 225.84 436.39 226.79 445.46 232.69C447.7 234.15 454.83 239.37 456.47 240.39C460.27 242.75 463.67 243.85 468 243.85C476.08 243.85 477.98 245.08 482.13 252.35C483.23 254.26 484.64 255.23 486.48 255.44C487.78 255.58 488.38 255.49 491.7 254.83C497.23 253.73 500.77 253.95 505.5 256.71C521.22 265.88 532 280.26 532 297.85C532 307.05 535.28 315.14 542.15 326.13L545.83 331.9C547.22 334.09 548.18 335.67 549 337.15C551.02 340.78 552 343.53 552 345.85C552 350.04 549.13 351.52 540.1 353.37L539.49 353.49C531.22 355.19 527.79 356.62 526.09 360.44C522.92 367.58 490.09 360.44 471.49 349.98C456.51 341.55 438 316.99 438 306.85C438 300.95 434.53 297.37 427.84 294.3C426.74 293.8 422.99 292.22 422.32 291.92C421.58 291.58 421 291.28 420.52 290.99C419.6 290.44 418.67 289.99 417.27 289.37C409.62 286.02 406.52 283.87 400.8 276.25C399.78 274.89 393.33 266.83 392.33 265.14C390.54 262.13 390 259.08 390 251.84V251.85ZM427.18 229.45C427.03 229.35 424.78 227.94 424.23 227.61C423.27 227.04 422.53 226.67 421.8 226.44C419.23 225.61 416.74 226.34 410.76 229.56C395.9 237.56 391.33 252.43 401.58 268.27C405.62 274.51 410.95 277.27 420.3 279.38C421.15 279.58 421.5 279.65 423.43 280.06C429.47 281.35 432.21 282.14 435.03 283.71C438.66 285.73 441.12 288.69 442.53 293.15C450.4 318.08 462.25 336.49 478.81 343.46C495.26 350.39 499.94 351.99 506.79 352.35C511.73 352.6 516.59 351.7 522.19 349.46C524.128 348.726 526.013 347.857 527.83 346.86C531.85 344.53 532.97 342.12 532.33 337.55C532.03 335.42 528.56 322.02 527.49 316.9C526.86 313.85 526.3 310.76 525.74 307.21C525.261 304.248 524.811 301.281 524.39 298.31C522.97 288.9 521.89 284.04 519.9 279.66C517.44 274.23 513.77 270.63 508.18 268.53C501.59 266.06 497.64 265.43 490.15 265C485.4 264.73 483.47 264.36 481.15 262.95C480.54 262.58 479.93 262.14 479.33 261.62C478.12 260.576 476.993 259.44 475.96 258.22C475.37 257.53 473.58 255.32 473.33 255.03C469.97 251.03 467.03 249.5 461 249.5C457.06 249.5 455.1 248.58 452.82 246.14C452.99 246.32 450.07 243 448.97 241.92C446.945 239.951 444.661 238.269 442.18 236.92C440.68 236.09 439.03 235.3 437.19 234.54C433.712 233.132 430.363 231.426 427.18 229.44V229.45ZM441.7 237.79C444.101 239.096 446.311 240.724 448.27 242.63C449.577 243.999 450.851 245.399 452.09 246.83C454.55 249.46 456.77 250.5 461 250.5C466.72 250.5 469.39 251.89 472.57 255.67C472.8 255.95 474.6 258.17 475.2 258.87C476.263 260.129 477.424 261.302 478.67 262.38C479.32 262.93 479.97 263.41 480.63 263.81C483.13 265.32 485.18 265.71 490.1 266C497.49 266.42 501.35 267.04 507.82 269.47C513.16 271.47 516.64 274.87 518.99 280.07C520.92 284.34 521.99 289.14 523.4 298.46L524.05 302.8L524.75 307.37C525.32 310.93 525.87 314.04 526.51 317.1C527.59 322.28 531.05 335.63 531.34 337.69C531.93 341.86 530.99 343.87 527.33 345.99C525.98 346.76 524.23 347.57 521.81 348.54C516.35 350.72 511.63 351.59 506.84 351.34C500.15 351 495.52 349.41 479.19 342.54C462.98 335.71 451.27 317.53 443.48 292.84C441.99 288.14 439.36 284.98 435.51 282.84C432.58 281.21 429.77 280.39 423.64 279.08C421.72 278.68 421.36 278.59 420.52 278.4C411.4 276.34 406.28 273.7 402.42 267.73C392.5 252.39 396.87 238.18 411.24 230.44C416.99 227.34 419.27 226.68 421.49 227.39C422.14 227.59 422.82 227.93 423.72 228.47C424.27 228.79 426.49 230.19 426.65 230.29C429.881 232.304 433.28 234.033 436.81 235.46C438.61 236.21 440.23 236.98 441.7 237.79ZM484.09 270.51C467.94 267.64 457.73 269.54 451.62 276.67C446.54 282.6 450.49 298.09 457.55 312.22C462.34 321.8 468.15 328.43 480.71 337.41C494.86 347.51 516.21 349.61 521.42 341.26C523.28 338.29 523.52 333.12 522.48 325.53C521.7 319.85 520.62 314.82 517.75 302.55L517.63 302.04C516.04 295.24 515.26 291.73 514.49 287.9C513.04 280.65 510.75 276.43 507.23 274.16C504.42 272.36 501.7 271.88 494.9 271.54C489.57 271.27 487.34 271.08 484.09 270.51ZM483.91 271.49C487.21 272.08 489.47 272.27 494.85 272.54C501.47 272.87 504.08 273.32 506.69 275C509.94 277.1 512.11 281.09 513.51 288.1C514.28 291.94 515.07 295.45 516.66 302.27L516.78 302.77C519.64 315.01 520.71 320.03 521.48 325.67C522.51 333.03 522.27 338.03 520.58 340.74C515.76 348.44 495.04 346.41 481.29 336.59C468.86 327.71 463.16 321.2 458.45 311.78C451.59 298.06 447.7 282.78 452.38 277.33C458.22 270.52 468.08 268.68 483.91 271.49ZM468 276.5C460.88 276.5 457.34 279.58 456.75 285.2C456.33 289.22 457.18 293.34 459.52 301.14C462.08 309.66 477.88 326.52 486.72 332.42C493.73 337.09 506.74 338.09 513.29 333.41C517.28 330.56 516.82 321.33 513.27 306.95C512.59 304.2 511.8 301.3 510.9 298.19C509.927 294.797 508.91 291.417 507.85 288.05L507.48 286.85C506 282.05 502.38 279.1 496.75 277.58C492.35 276.38 487.21 276.08 479.27 276.25L475.38 276.35C471.51 276.46 469.96 276.5 468 276.5ZM468 277.5C469.97 277.5 471.53 277.46 475.41 277.35L479.29 277.25C487.14 277.08 492.21 277.38 496.49 278.55C501.81 279.98 505.16 282.71 506.52 287.15C507.05 288.888 507.583 290.624 508.12 292.36C508.8 294.56 509.39 296.53 509.94 298.46C510.84 301.56 511.62 304.45 512.3 307.19C515.73 321.07 516.17 330.12 512.7 332.59C506.53 337.01 493.97 336.04 487.28 331.59C478.62 325.81 462.95 309.1 460.48 300.86C458.18 293.19 457.34 289.15 457.75 285.3C458.28 280.2 461.39 277.5 468 277.5ZM485.79 284.5C482.882 284.566 479.998 285.037 477.22 285.9C471.8 287.68 468.5 290.93 468.5 296C468.5 305.59 478.01 313.2 490.84 317.47C500.66 320.75 504.46 315.68 502.5 300.93C501.66 294.65 498.68 290.26 494.26 287.47C491.692 285.863 488.799 284.848 485.79 284.5ZM486.39 285.58C488.997 285.981 491.494 286.91 493.73 288.31C497.91 290.95 500.71 295.09 501.5 301.07C503.39 315.18 500.14 319.52 491.16 316.53C478.7 312.37 469.5 305 469.5 296C469.5 291.44 472.48 288.5 477.53 286.85C480.181 285.995 482.945 285.54 485.73 285.5C485.86 285.5 486.08 285.53 486.39 285.58ZM405.52 262.13C408.24 271.93 420.45 271.99 432.24 265.43C442.41 259.79 446.04 247.45 437.24 242.56C435.712 241.719 434.217 240.818 432.76 239.86L430.73 238.56C429.459 237.735 428.151 236.967 426.81 236.26C422.08 233.83 417.99 233.46 412.81 235.54C403.65 239.2 401.83 248.87 405.51 262.14L405.52 262.13ZM426.35 237.15C427.663 237.842 428.945 238.593 430.19 239.4L432.22 240.7C433.06 241.23 433.72 241.65 434.38 242.05C435.2 242.55 435.98 243.01 436.76 243.44C444.7 247.84 441.35 259.24 431.76 264.56C420.45 270.85 408.96 270.79 406.48 261.86C402.91 249.03 404.63 239.89 413.18 236.46C418.08 234.51 421.87 234.84 426.35 237.16V237.15ZM408.5 249.3C408.5 255 410.94 258.3 415.14 259.26C418.44 260.02 422.7 259.21 426.22 257.45L428.11 256.51C428.78 256.17 429.29 255.89 429.74 255.63C433.81 253.25 433.87 250.66 429.4 244.7C422.6 235.64 408.5 237.54 408.5 249.3ZM409.5 249.3C409.5 244 412.37 240.75 416.82 240.14C421.05 239.57 425.81 241.58 428.6 245.3C432.75 250.84 432.7 252.74 429.24 254.77C428.8 255.02 428.31 255.28 427.65 255.62L425.78 256.55C422.44 258.22 418.42 258.99 415.36 258.29C411.63 257.43 409.5 254.55 409.5 249.29V249.3ZM77.78 450.54C74.72 452.07 71.24 452.56 67.1 452.24C64.57 452.04 62.19 451.62 58.3 450.75C52.94 449.56 51.97 449.37 49.97 449.21C47.19 448.98 45.15 449.38 43.68 450.61C42.1 451.92 41.72 453.33 42.42 454.83C43.08 456.21 43.47 456.57 47.47 459.9C51 462.83 52.5 464.73 52.5 466.99C52.5 474.29 51.21 477.01 44.67 482.61C40.81 485.91 38.74 489.45 39.39 492.23C40.14 495.48 44.35 497.25 52 497.25C59.18 497.25 64.7 501.86 72.03 511.93C72.53 512.63 75.99 517.5 76.97 518.8C78.3687 520.776 79.9489 522.618 81.69 524.3C82.75 525.28 83.78 526 84.79 526.45C87.64 527.71 89.84 528.02 94.62 528.19C102.28 528.46 105.49 529.64 109.6 535.29C111.18 537.46 112.71 539.29 114.28 540.89C116.866 543.48 119.773 545.728 122.93 547.58C123.08 547.66 133.62 553.77 137.73 556.41C141.49 558.83 144.18 558.45 145.95 555.64C147.23 553.61 147.85 551.1 148.82 545.29C149.66 540.21 150.09 538.21 150.88 536.36C151.85 534.06 153.09 533.12 154.9 533.48C161.1 534.72 163.85 534.87 165.88 533.68C168.25 532.28 169.01 529.06 168.5 522.95C168.34 520.99 169.54 520.08 172.26 519.91C174.5 519.78 177.16 520.11 182.2 521.03L182.89 521.15C190.86 522.6 193.61 522.87 195.61 521.88C198.52 520.45 197.21 516.61 191.38 509.67C185.9 503.14 180.78 498.86 175.62 496.14C171.88 494.17 169.68 493.49 163.46 492.04C156.17 490.32 153.06 488.53 149.42 482.73C146.46 477.98 138.68 464.11 137.28 461.89C133.69 456.22 130.48 452.79 126.23 450.55C123.63 449.17 121.51 447.73 117.06 444.48L115.68 443.47C107.83 437.75 103.38 435.49 98 435.49C93.78 435.49 91.51 436.85 88.87 440.26C88.53 440.69 87.2 442.48 86.87 442.93C86.02 444.02 85.27 444.91 84.42 445.76C82.4928 447.717 80.2477 449.334 77.78 450.54ZM78.22 451.44C81.02 450.04 83.22 448.41 85.14 446.47C86.01 445.57 86.79 444.66 87.65 443.54C88 443.08 89.33 441.29 89.66 440.87C92.13 437.69 94.12 436.49 98 436.49C103.09 436.49 107.4 438.69 115.09 444.27L116.47 445.28C120.96 448.57 123.1 450.02 125.77 451.43C129.83 453.58 132.93 456.88 136.43 462.43C137.82 464.62 145.59 478.48 148.58 483.25C152.37 489.32 155.71 491.23 163.24 493C169.37 494.45 171.51 495.1 175.16 497.02C180.2 499.68 185.21 503.88 190.62 510.32C196.05 516.78 197.15 520.01 195.17 520.98C193.47 521.82 190.69 521.55 183.07 520.17L182.37 520.04C177.25 519.11 174.55 518.77 172.2 518.92C168.99 519.12 167.28 520.4 167.5 523.03C167.98 528.79 167.3 531.67 165.37 532.81C163.64 533.83 161.03 533.69 155.1 532.5C152.75 532.03 151.1 533.28 149.96 535.97C149.13 537.92 148.69 539.97 147.89 544.77L147.83 545.13C146.89 550.78 146.28 553.24 145.11 555.11C143.65 557.41 141.59 557.71 138.27 555.57C134.13 552.91 123.58 546.8 123.46 546.72C120.372 544.91 117.529 542.712 115 540.18C113.332 538.471 111.795 536.639 110.4 534.7C106.08 528.75 102.59 527.47 94.66 527.2C90 527.03 87.9 526.73 85.2 525.53C84.3 525.13 83.35 524.47 82.36 523.57C80.6637 521.93 79.1237 520.136 77.76 518.21C76.8 516.91 73.36 512.05 72.83 511.34C65.33 501.03 59.61 496.25 52 496.25C44.76 496.25 40.98 494.65 40.36 492.01C39.82 489.69 41.72 486.46 45.33 483.37C52.08 477.58 53.5 474.58 53.5 466.99C53.5 464.32 51.86 462.25 48.11 459.13C44.31 455.96 43.88 455.57 43.33 454.4C42.83 453.34 43.08 452.41 44.32 451.37C46.55 449.52 49.04 449.72 58.08 451.73C62.01 452.6 64.43 453.03 67.02 453.23C71.32 453.57 74.99 453.05 78.22 451.43V451.44ZM106.22 447.54C100.57 444.72 97.26 445.34 93.32 448.91C92.76 449.41 90.72 451.38 90.3 451.78C86.1 455.67 82.23 457.49 76 457.49C64.63 457.49 62 458.9 59.9 465.58C59.64 466.41 58.55 470.18 58.24 471.2C57.44 473.83 56.6 476.23 55.54 478.8C53.41 483.97 52.9 487.12 53.82 489.04C54.59 490.65 55.92 491.22 59.19 491.83C61.51 492.26 61.99 492.36 63.04 492.68C64.89 493.26 66.39 494.08 67.64 495.34C68.64 496.34 69.66 497.47 70.95 499C71.55 499.71 73.86 502.5 74.41 503.14C81.61 511.68 86.84 515.49 94 515.49C97.76 515.49 100.95 516.77 104.59 519.49C106.43 520.86 116.21 529.8 119.81 532.55C122.646 534.726 125.637 536.691 128.76 538.43C133.34 540.97 136.11 541.65 137.74 540.66C139.06 539.86 139.39 538.59 139.68 535.16C139.723 534.556 139.776 533.952 139.84 533.35C140.38 528.62 142.08 526.49 147 526.49C154.11 526.49 155.85 525.26 156.73 521.08C157.69 516.47 158.83 514.38 163.28 511.41C167.25 508.76 167.59 505.99 164.8 503.19C162.8 501.19 160.17 499.69 153.45 496.32C146.84 493.02 144.25 491.52 142.35 489.64C140.356 487.676 138.58 485.504 137.05 483.16C136.07 481.66 135.22 480.12 134.17 478.03L132.05 473.73C131.14 471.9 130.33 470.36 129.44 468.75C123.7 458.43 119.07 453.97 106.22 447.55V447.54ZM128.56 469.24C129.45 470.83 130.25 472.36 131.16 474.18L133.27 478.48C134.15 480.278 135.132 482.024 136.21 483.71C137.781 486.108 139.605 488.331 141.65 490.34C143.65 492.34 146.27 493.85 153 497.21C159.6 500.51 162.2 502.01 164.1 503.9C166.43 506.24 166.18 508.27 162.72 510.57C158.02 513.71 156.76 516.03 155.75 520.87C154.97 524.57 153.66 525.49 147 525.49C141.5 525.49 139.43 528.06 138.85 533.24C138.79 533.74 138.76 534.06 138.68 535.08C138.43 538.14 138.13 539.25 137.22 539.8C136.02 540.54 133.53 539.93 129.24 537.55C126.162 535.835 123.214 533.896 120.42 531.75C116.87 529.05 107.08 520.1 105.18 518.68C101.39 515.85 98 514.49 94 514.49C87.23 514.49 82.2 510.82 75.17 502.49L71.72 498.36C70.649 497.074 69.5246 495.833 68.35 494.64C66.9498 493.266 65.2272 492.265 63.34 491.73C62.24 491.39 61.74 491.28 59.37 490.84C56.42 490.29 55.3 489.82 54.72 488.61C53.96 487.02 54.44 484.11 56.46 479.18C57.4968 476.662 58.4112 474.096 59.2 471.49C59.51 470.46 60.6 466.69 60.86 465.88C62.81 459.68 65.02 458.49 76 458.49C82.5 458.49 86.61 456.56 90.98 452.51C91.42 452.11 93.44 450.14 93.99 449.65C97.64 446.35 100.51 445.8 105.78 448.44C118.45 454.77 122.93 459.09 128.56 469.24ZM72.7 481.17C75.68 487.62 89.48 496.43 99.44 496.43C104.77 496.43 107 493.45 106.55 488.57C106.23 485.09 104.45 480.66 102.62 477.96L101.1 475.64C100.506 474.717 99.8794 473.817 99.22 472.94C95.56 468.14 91.37 465.49 85.6 465.49C76.54 465.49 69.85 475.01 72.7 481.17ZM73.6 480.75C71.08 475.28 77.25 466.49 85.6 466.49C91 466.49 94.93 468.97 98.42 473.55C99.02 474.35 99.59 475.15 100.27 476.19C100.27 476.19 101.47 478.06 101.79 478.52C103.53 481.09 105.25 485.37 105.56 488.66C105.96 492.99 104.13 495.43 99.44 495.43C89.87 495.43 76.42 486.85 73.61 480.75H73.6ZM143.27 501.49C141.19 501.67 138.83 502.3 137.39 503.29C135.27 504.76 135.19 506.89 137.65 509.34C142.79 514.49 150.5 513.68 150.5 507.99C150.5 503.33 147.36 501.15 143.27 501.49ZM143.36 502.49C146.92 502.19 149.5 503.99 149.5 507.99C149.5 512.57 142.97 513.25 138.35 508.64C136.32 506.6 136.37 505.21 137.95 504.12C139.22 503.24 141.43 502.65 143.35 502.49H143.36ZM113.77 276.54C109.13 278.89 96.5 284.78 94.38 285.97C91.6962 287.39 89.3044 289.303 87.33 291.61C85.9581 293.252 84.7049 294.99 83.58 296.81C81.18 300.59 83.54 304.47 89.78 308.44C94.75 311.6 101.96 314.74 111.73 318.26C116.57 320 131.36 324.94 132.83 325.46C139.42 327.79 147.68 325.56 157.97 319.6C161.9 317.33 165.97 314.6 170.91 311.06C173.14 309.45 180.41 304.07 181.61 303.21C184.363 301.129 187.245 299.225 190.24 297.51C195.06 294.91 194.69 290.87 190.07 285.38C186.8 281.5 185.9 280.71 171.97 269.05C168.941 266.546 165.977 263.965 163.08 261.31C161.453 259.812 159.879 258.258 158.36 256.65C153.28 251.22 148.56 250.16 143.39 252.73C141.15 253.83 138.86 255.58 135.96 258.25C134.48 259.62 129.02 264.97 127.98 265.95C122.78 270.86 118.52 274.15 113.78 276.55L113.77 276.54ZM114.23 277.44C119.08 274.99 123.41 271.65 128.67 266.68C129.72 265.68 135.17 260.34 136.64 258.99C139.47 256.38 141.7 254.69 143.84 253.62C148.59 251.26 152.84 252.22 157.64 257.33C159.172 258.955 160.759 260.526 162.4 262.04C164.88 264.34 167.56 266.66 171.32 269.81C185.18 281.41 186.09 282.21 189.3 286.02C193.58 291.1 193.88 294.42 189.76 296.63C187.53 297.83 184.86 299.62 181.02 302.4C179.82 303.27 172.55 308.64 170.32 310.25C166.18 313.291 161.892 316.125 157.47 318.74C147.41 324.56 139.4 326.72 133.17 324.52C131.69 324 116.9 319.05 112.07 317.32C102.37 313.82 95.21 310.71 90.32 307.6C84.48 303.89 82.42 300.5 84.42 297.34C85.5213 295.562 86.7477 293.864 88.09 292.26C89.9882 290.042 92.2886 288.203 94.87 286.84C96.95 285.68 109.55 279.79 114.23 277.44ZM153.06 285.49C149.95 285.12 147.36 285.36 144.66 286.19C142.51 286.85 141.92 287.12 136.02 289.96C131.27 292.25 127.63 293.82 122.83 295.52C114.45 298.49 111.51 301.75 114 305.28C116.08 308.22 122.04 311.2 131.84 314.46C140.29 317.28 147.32 316.81 153.27 313.56C157.92 311.01 161.6 307.06 165.42 301.26C168.32 296.85 168.15 293.06 165.26 290.2C162.78 287.75 158.39 286.13 153.06 285.5V285.49ZM152.94 286.49C158.07 287.09 162.27 288.65 164.56 290.91C167.09 293.41 167.24 296.68 164.58 300.71C160.85 306.39 157.28 310.22 152.78 312.68C147.08 315.79 140.35 316.25 132.16 313.52C122.57 310.32 116.72 307.4 114.82 304.7C112.88 301.95 115.32 299.25 123.17 296.46C128.01 294.74 131.67 293.16 136.45 290.86C142.29 288.05 142.87 287.79 144.95 287.15C147.536 286.345 150.267 286.119 152.95 286.49H152.94ZM397.5 500.38C397.5 505.16 398.95 507.94 401.93 509.31C404.22 510.36 406.48 510.54 412.72 510.51L414.5 510.5C423.69 510.5 431.5 502.85 431.5 495C431.5 487.41 420.9 484.49 411.76 489.56C408.98 491.11 407.55 491.5 403.19 492.31C398.75 493.14 397.5 494.58 397.5 500.38ZM398.5 500.38C398.5 495.08 399.4 494.04 403.38 493.3C407.83 492.47 409.34 492.05 412.24 490.44C420.81 485.68 430.5 488.34 430.5 495C430.5 502.3 423.14 509.5 414.5 509.5H412.71C406.65 509.54 404.45 509.36 402.35 508.4C399.75 507.2 398.5 504.8 398.5 500.38ZM365.17 382.53C361.46 381.22 356.47 379.83 349.07 377.98C346.49 377.33 332.54 373.94 328.51 372.93C308.92 368 296.96 364.03 290.28 359.58C275.35 349.63 253.41 325.7 246.45 311.78C244.2 307.28 241.8 305.4 238.77 305.53C237.51 305.59 236.16 305.98 234.45 306.73C233.249 307.251 232.068 307.818 230.91 308.43L229.65 309.06C224.87 311.4 221.27 312.5 217 312.5C209.8 312.5 206.99 315.57 208.65 320.41C210.05 324.47 214.57 329.32 219.75 332.43C228.05 337.41 231.5 349.73 231.5 366C231.5 369.59 232.87 372.28 235.48 374.36C237.46 375.94 239.68 376.96 243.95 378.52L244.97 378.89C249.82 380.64 251.95 381.66 253.65 383.35C258.74 388.45 266.19 390.5 274 390.5C275.38 390.5 276.47 391.42 277.99 393.6C278.28 394.01 279.31 395.55 279.46 395.78C282.14 399.7 284.39 401.5 288 401.5C295.84 401.5 298.74 402.43 309.76 408.44C314.94 411.26 318.56 412.02 324.42 412.12C324.68 412.12 324.89 412.12 325.34 412.14C330.16 412.2 332.46 412.44 335.85 413.48C338.888 414.472 341.857 415.661 344.74 417.04C346.91 418.04 355.27 422.05 354.97 421.91C362.76 425.61 368.29 427.89 373.87 429.48C386.28 433.03 392.45 431.72 401.29 425.41C403.87 423.56 404.01 420.98 402.12 417.79C400.67 415.34 398.22 412.7 394.04 408.82L392.26 407.18C388.34 403.58 387.78 403.07 386.36 401.65C384.04 399.33 383.24 398.15 380.88 394.02C378.95 390.66 377.51 388.91 374.61 386.96C372.31 385.42 369.27 383.98 365.17 382.53ZM364.83 383.47C368.86 384.89 371.83 386.3 374.05 387.79C376.8 389.64 378.15 391.28 380.01 394.52C382.41 398.72 383.25 399.96 385.65 402.35C387.08 403.79 387.65 404.31 391.59 407.92L393.36 409.55C397.46 413.37 399.88 415.96 401.26 418.3C402.91 421.09 402.8 423.1 400.71 424.6C392.11 430.74 386.25 431.98 374.14 428.52C368.64 426.95 363.14 424.68 355.4 421.01C355.7 421.15 347.34 417.13 345.16 416.13C342.238 414.735 339.229 413.532 336.15 412.53C332.64 411.44 330.26 411.2 325.35 411.13H324.44C318.72 411.03 315.26 410.3 310.24 407.56C299.08 401.48 296.04 400.5 288 400.5C284.81 400.5 282.8 398.9 280.29 395.22L278.81 393.02C277.11 390.59 275.81 389.5 274 389.5C266.43 389.5 259.22 387.5 254.35 382.65C252.52 380.81 250.31 379.75 245.31 377.95L244.29 377.58C235.69 374.45 232.5 371.91 232.5 366C232.5 349.4 228.97 336.8 220.26 331.57C215.26 328.57 210.91 323.9 209.6 320.09C208.18 315.96 210.43 313.5 217 313.5C221.45 313.5 225.19 312.36 230.09 309.96C237.61 306.29 236.87 306.62 238.81 306.53C241.39 306.43 243.46 308.05 245.55 312.23C252.59 326.3 274.65 350.37 289.72 360.42C296.53 364.96 308.56 368.94 328.27 373.9C332.3 374.92 346.25 378.3 348.83 378.95C356.2 380.79 361.16 382.18 364.83 383.47ZM348 387.5C345.92 387.5 344 387.3 340.75 386.81C335.53 386.04 334.11 385.91 332.29 386.31C329.77 386.87 328.5 388.66 328.5 392C328.5 396.05 330.77 399.29 335.12 402.11C338.36 404.21 341.65 405.64 349.27 408.51L349.54 408.61L351.82 409.47C354.86 410.63 357.09 411.99 361.15 414.9L361.95 415.47C370.14 421.35 375.3 423.5 385 423.5C389.98 423.5 391.88 421.47 390.75 417.88C389.88 415.07 387.17 411.32 382.95 406.75C381.69 405.38 380.31 403.95 378.8 402.45C375.63 399.31 367.55 391.84 367.35 391.65C366.89 391.18 366.42 390.76 365.95 390.39C362.57 387.68 360.18 387.31 351.77 387.46C350.12 387.49 349.14 387.5 348 387.5ZM348 388.5C349.15 388.5 350.13 388.49 351.79 388.46C359.97 388.32 362.19 388.66 365.33 391.17C365.77 391.52 366.21 391.91 366.65 392.35C366.85 392.56 374.95 400.04 378.1 403.17C379.504 404.56 380.878 405.98 382.22 407.43C386.34 411.9 388.98 415.55 389.8 418.18C390.7 421.06 389.35 422.5 385 422.5C375.54 422.5 370.56 420.43 362.54 414.66L361.74 414.09C357.61 411.13 355.32 409.73 352.18 408.53L349.88 407.67L349.63 407.57C342.08 404.73 338.83 403.32 335.66 401.27C331.58 398.62 329.5 395.67 329.5 392C329.5 389.11 330.47 387.74 332.5 387.3C334.15 386.93 335.55 387.05 340.6 387.8C343.9 388.3 345.86 388.5 348 388.5ZM235.53 343.16C237.41 348.6 237.51 349.92 236.51 355.92C235.33 362.98 237.89 372.5 242 372.5C242.504 372.501 243.008 372.524 243.51 372.57L244.15 372.61C247.01 372.79 248.98 372.78 251.09 372.44C257.64 371.38 261.5 367.3 261.5 359C261.5 345.1 259.36 339.31 253.37 332.67C252.403 331.51 251.558 330.254 250.85 328.92C250.26 327.89 248.07 323.79 248.13 323.91C243.69 315.77 240.42 312.38 235.88 313.51C234.71 313.81 233.68 314.28 232.3 315.1L230.91 315.94C229.925 316.563 228.888 317.098 227.81 317.54C227.11 317.81 226.01 317.86 223.06 317.8L222.34 317.79C219.18 317.74 217.56 317.87 216.51 318.45C214.9 319.34 215.31 321.01 217.65 323.35C218.921 324.619 220.208 325.873 221.51 327.11C232.11 337.21 234.26 339.51 235.53 343.16ZM236.47 342.84C235.13 338.94 233.01 336.67 222.2 326.38C220.65 324.91 219.47 323.76 218.35 322.65C216.41 320.7 216.18 319.77 217 319.32C217.82 318.87 219.37 318.74 222.32 318.79L223.04 318.8C226.18 318.86 227.3 318.82 228.18 318.46C229.24 318.05 230.15 317.56 231.43 316.79L232.81 315.96C233.833 315.307 234.949 314.811 236.12 314.49C240 313.52 243.04 316.66 247.25 324.39C247.18 324.26 249.39 328.37 249.98 329.41C250.724 330.805 251.613 332.119 252.63 333.33C258.44 339.8 260.5 345.33 260.5 359C260.5 366.79 257.02 370.47 250.93 371.45C248.92 371.78 247.01 371.79 244.22 371.61C243.81 371.587 243.4 371.564 242.99 371.54C242.57 371.51 242.26 371.5 242 371.5C238.8 371.5 236.4 362.6 237.5 356.08C238.52 349.92 238.41 348.44 236.47 342.84ZM245.73 355.26C245.15 355.78 243.23 357.16 243.18 357.19C241.22 358.76 241.14 360.5 243.17 363.55C246.91 369.19 252 366.64 252 359C252 355.19 251.49 353.33 249.93 352.98C248.75 352.72 247.93 353.28 245.73 355.26ZM247.07 356.74C248.57 355.39 249.3 354.89 249.5 354.94C249.67 354.97 250 356.17 250 359C250 364.87 247.33 366.21 244.83 362.45C243.33 360.19 243.36 359.61 244.43 358.75C244.4 358.78 246.38 357.35 247.07 356.75V356.74ZM24.17 226.55C21.97 225.45 20.5 224.89 18.29 224.19L18.01 224.1C14.972 223.204 12.0281 222.015 9.21997 220.55C5.04997 218.47 2.87001 218.67 2.26001 221.39C1.82001 223.39 2.06001 225.4 3.51001 234.09C5.78001 247.71 12.67 260.23 24.68 270.39C28.98 274.02 32.09 274.78 34.43 272.83C36.31 271.26 37.53 268.26 39.04 262.35C39.34 261.2 40.47 256.52 40.76 255.39C41.5336 252.28 42.4376 249.204 43.47 246.17C45.87 239.35 46.5 235.39 45.57 233.23C44.8 231.4 43.49 230.99 39.97 230.78C38.48 230.69 37.88 230.64 37 230.5L35.05 230.17C34.33 230.05 33.83 229.97 33.37 229.88C32.27 229.68 31.45 229.5 30.66 229.28C28.96 228.79 27.24 228.08 24.17 226.55ZM23.73 227.45C26.84 228.99 28.61 229.74 30.38 230.24C31.22 230.47 32.07 230.66 33.19 230.87C34.4562 231.103 35.7264 231.313 37 231.5C37.77 231.63 38.39 231.69 39.92 231.78C43.05 231.96 44.09 232.29 44.66 233.63C45.44 235.47 44.86 239.25 42.53 245.83C41.4862 248.893 40.572 252 39.79 255.14L38.07 262.1C36.61 267.8 35.45 270.68 33.79 272.06C31.92 273.62 29.3 272.99 25.32 269.62C13.5 259.62 6.71999 247.32 4.48999 233.92C3.08999 225.47 2.83999 223.41 3.23999 221.61C3.64999 219.74 5.10003 219.61 8.78003 221.45C11.6336 222.935 14.6242 224.141 17.71 225.05L17.99 225.15C19.9667 225.748 21.8874 226.517 23.73 227.45ZM28.23 234.03C26.86 233.71 25.73 233.28 24.33 232.61C23.98 232.43 21.76 231.3 21.01 230.94C19.51 230.23 18.04 229.63 16.31 229.05C13.61 228.15 11.67 228.28 10.43 229.45C9.44999 230.39 9.09002 231.71 9.02002 233.63C9.00002 234.03 9 234.33 9 235C9 240.63 13.63 251.88 20.34 257.75C24.68 261.55 27.65 262.42 30.26 260.27C32.32 258.57 33.76 255.62 36.93 247.36C38.79 242.53 38.98 239.26 37.61 237.16C36.49 235.46 34.71 234.8 31.78 234.46L30.52 234.34C29.33 234.22 28.77 234.15 28.22 234.03H28.23ZM30.33 236.33L31.55 236.45C33.95 236.72 35.25 237.21 35.94 238.26C36.87 239.69 36.72 242.36 35.07 246.64C32.05 254.48 30.66 257.35 28.99 258.73C27.36 260.07 25.35 259.48 21.66 256.25C15.4 250.77 11 240.08 11 235C11 234.36 11 234.07 11.02 233.71C11.07 232.27 11.32 231.38 11.81 230.91C12.41 230.34 13.61 230.26 15.68 230.95C17.2066 231.455 18.6997 232.056 20.15 232.75C20.87 233.09 23.08 234.22 23.47 234.41C24.8373 235.097 26.2806 235.62 27.77 235.97C28.43 236.13 29.05 236.21 30.33 236.33ZM258.06 147.35C259.65 151.65 261.6 154.6 265.2 158.75L267.8 161.72C268.71 162.769 269.587 163.846 270.43 164.95C272.225 167.295 273.792 169.807 275.11 172.45C277.96 178.15 282.25 182.63 287.96 186.34C292.21 189.1 296.21 190.96 303.63 193.93C314.64 198.33 320.06 195.19 330.85 177.53C333.71 172.84 339.65 168.9 348.83 164.87C351.83 163.54 361.71 159.63 363.26 158.95C368.22 156.77 370.3 155.23 369.68 153.1C369.01 150.78 364.38 149.05 354.2 147.02C337.57 143.7 327.27 143.2 314.27 144C306.37 144.49 304.6 144.5 301.53 143.74C299.54 143.26 297.61 142.44 295.53 141.14L292.74 139.43C282.88 133.29 279.8 131.47 275.44 129.53C269.41 126.82 264.87 126.21 261.5 128.13C254.3 132.25 253.82 135.83 258.06 147.35ZM259.94 146.65C255.99 135.95 256.34 133.39 262.5 129.87C265.16 128.35 269.12 128.88 274.62 131.35C278.86 133.25 281.92 135.05 291.69 141.12L294.48 142.85C296.505 144.14 298.723 145.098 301.05 145.69C304.41 146.5 306.27 146.49 314.39 145.99C327.23 145.21 337.36 145.7 353.8 148.99C358.7 149.96 362.25 150.87 364.59 151.74C366.62 152.5 367.63 153.19 367.76 153.65C367.92 154.22 366.28 155.44 362.46 157.11C360.96 157.78 351.07 161.69 348.02 163.04C338.5 167.23 332.28 171.34 329.15 176.48C318.8 193.41 314.28 196.04 304.37 192.08C297.07 189.15 293.16 187.33 289.04 184.66C283.62 181.13 279.57 176.91 276.89 171.56C275.45 168.66 273.87 166.16 272.03 163.74C271.158 162.602 270.251 161.491 269.31 160.41L266.71 157.44C263.25 153.45 261.43 150.69 259.94 146.65ZM266.58 146.26C274.52 159.06 285.11 168.01 299.88 171.49C307.7 173.32 312.35 170.7 313 165.56C313.55 161.11 310.71 156.5 307 156.5C303.98 156.5 301.4 154.82 291.62 147.34C290.15 146.22 289.05 145.38 287.96 144.6C283.56 141.4 280.19 139.43 277.14 138.52C271.57 136.85 267.81 136.37 265.79 137.3C263.29 138.44 263.57 141.43 266.58 146.26ZM267.42 145.74C264.7 141.34 264.48 139 266.21 138.21C267.92 137.42 271.53 137.88 276.86 139.48C279.76 140.35 283.06 142.27 287.37 145.4C288.45 146.19 289.55 147.02 291.02 148.14C301.1 155.86 303.64 157.5 307 157.5C310.02 157.5 312.5 161.52 312 165.44C311.44 169.94 307.38 172.22 300.11 170.51C285.63 167.11 275.25 158.33 267.42 145.74ZM138.83 33.53C124.95 38.49 118.08 38.49 107.21 33.54C104.19 32.17 101.74 30.6 96.21 26.72C90.64 22.8 88.16 21.21 85.07 19.8C80.93 17.92 77.29 17.42 73.85 18.52C69.93 19.78 67.65 30.82 67.07 46.97C66.57 61.17 67.59 75.9 69.53 81.17C71.35 86.1 75.39 89.34 81.04 91.19C85.2373 92.475 89.6111 93.0893 94 93.01C99.79 93.01 103 95.41 106.2 100.65C106.57 101.24 107.75 103.25 107.91 103.52C109.66 106.42 110.96 107.85 112.84 108.47C113.78 108.79 114.91 109.3 116.71 110.21L119.14 111.44C120.17 111.97 121.01 112.38 121.84 112.78C128.27 115.88 133.57 117.5 139 117.5C144.71 117.5 149.04 119.59 153.02 123.42C154.18 124.53 157.22 127.95 157.65 128.36C160.19 130.8 163.58 132.6 168.5 134.46C169.9 134.98 174.48 136.59 174.75 136.68L176.81 137.46C177.7 137.82 178.59 138.09 179.51 138.27C185.06 139.41 190.65 137.73 197.49 133.85C198.76 133.12 202.62 130.79 203.25 130.43C205.3 129.27 207.37 128.9 212.34 128.53L214.07 128.38C218.85 127.98 221.75 127.24 224.29 125.41C229.29 121.8 231.06 117.65 229.94 113.08C228.61 107.66 223.44 102.06 215.09 95.8C212.96 94.2125 210.793 92.6754 208.59 91.19C208.92 91.42 204.26 88.27 203.29 87.59C200.56 85.68 198.49 83.69 190.54 75.55L189.45 74.45C185.96 70.89 183.56 68.56 181.33 66.62C178.43 64.12 176.61 60.67 173.83 53.57L173.2 51.96C170.5 45.04 168.92 41.96 166.33 39.63C164.91 38.35 159.65 33.09 158.4 32.13C154.42 29.13 150.39 29.4 138.83 33.53ZM139.17 34.47C150.43 30.45 154.17 30.19 157.79 32.94C158.98 33.84 164.19 39.05 165.67 40.37C168.09 42.55 169.63 45.56 172.27 52.32L172.9 53.93C175.73 61.19 177.62 64.73 180.67 67.38C183.855 70.1979 186.911 73.1575 189.83 76.25C197.85 84.45 199.91 86.45 202.71 88.41C203.7 89.1 208.36 92.25 208.02 92.01C210.52 93.72 212.54 95.14 214.49 96.6C222.66 102.73 227.72 108.2 228.97 113.32C229.99 117.47 228.39 121.22 223.71 124.59C221.35 126.29 218.6 126.99 213.99 127.39L212.26 127.52C207.14 127.92 204.98 128.3 202.76 129.57C202.11 129.93 198.26 132.27 197 132.97C190.34 136.75 184.96 138.37 179.71 137.29C178.85 137.12 178.01 136.87 177.19 136.54C176.495 136.262 175.794 135.995 175.09 135.74C174.81 135.64 170.23 134.04 168.85 133.52C164.05 131.72 160.77 129.96 158.35 127.64C157.95 127.26 154.91 123.84 153.72 122.7C149.56 118.7 145 116.5 139 116.5C133.75 116.5 128.58 114.91 122.27 111.88C121.45 111.48 120.62 111.08 119.59 110.55C119.47 110.49 117.66 109.56 117.16 109.32C115.32 108.39 114.16 107.86 113.16 107.52C111.56 107 110.4 105.7 108.77 103L107.07 100.12C103.68 94.62 100.2 92.01 94 92.01C89.55 92.01 85.27 91.52 81.36 90.24C75.96 88.48 72.16 85.44 70.46 80.83C68.59 75.72 67.56 61.08 68.07 47C68.63 31.47 70.88 20.52 74.15 19.48C77.33 18.46 80.72 18.93 84.65 20.71C87.67 22.08 90.12 23.65 95.65 27.54C101.22 31.46 103.7 33.04 106.79 34.46C117.92 39.51 125.05 39.51 139.17 34.47ZM125 55C119.62 55 117.45 54.79 115.28 54.04C114.02 53.61 105.33 49.24 100.4 47.08C98.5 46.26 96.84 44.64 93.8 41.04C91.24 38 90.61 37.29 89.4 36.2C85.7 32.85 82.33 32.92 79.18 37.43C72.95 46.33 73.57 53.37 79.11 64.45C80.0202 66.2406 80.8543 68.0689 81.61 69.93C81.93 70.73 82.61 72.63 82.7 72.83C82.87 73.28 83.04 73.64 83.24 74C83.87 75.14 84.8 76.21 87.29 78.7C89.69 81.1 92.45 81.97 98.97 83.03C100.78 83.33 101.17 83.39 101.97 83.54C107.99 84.64 111.57 86.23 114.21 89.61C117.78 94.2 122.11 97.09 129.19 100.35C129.74 100.59 130.29 100.85 130.99 101.15L132.77 101.95C135.427 103.064 138 104.367 140.47 105.85C143.04 107.45 145.26 108.2 149.89 109.31C158.47 111.37 162.17 113.07 167.26 118.67C172.38 124.31 177.43 126.31 183.89 125.37C189.25 124.58 194.52 122.36 207.45 115.89C213.75 112.74 213.88 108.11 208.95 102.33C205.57 98.39 205.43 98.27 189.55 85.89C181.43 79.56 176.58 75.32 172.92 71.01C170.39 68.03 168.72 65.28 167.96 62.71C162.46 44.41 155.46 40.73 145.18 47.15C143.23 48.37 138.57 51.7 138 52.05C134.64 54.2 131.48 55 125 55ZM125 57C131.84 57 135.37 56.11 139.08 53.74C139.71 53.34 144.35 50.03 146.24 48.84C155.29 43.19 160.9 46.14 166.04 63.29C166.9 66.16 168.71 69.14 171.39 72.3C175.17 76.75 180.09 81.05 188.33 87.47C203.99 99.68 204.19 99.85 207.43 103.63C211.6 108.53 211.52 111.63 206.55 114.11C193.84 120.46 188.66 122.65 183.61 123.39C177.83 124.23 173.43 122.49 168.74 117.33C163.32 111.37 159.29 109.51 150.36 107.37C145.93 106.3 143.86 105.61 141.53 104.15C138.984 102.621 136.33 101.277 133.59 100.13L131.81 99.33L130.03 98.53C123.21 95.4 119.12 92.66 115.79 88.39C112.79 84.52 108.79 82.75 102.33 81.57C101.5 81.42 101.12 81.36 99.29 81.06C93.19 80.06 90.69 79.28 88.71 77.29C86.35 74.93 85.5 73.95 84.99 73.03C84.84 72.76 84.7 72.47 84.55 72.09C84.49 71.94 83.8 70.03 83.46 69.19C82.82 67.59 82.01 65.79 80.89 63.55C75.65 53.06 75.09 46.75 80.82 38.57C83.22 35.13 85.19 35.09 88.06 37.68C89.17 38.68 89.79 39.38 92.28 42.33C95.52 46.18 97.32 47.92 99.6 48.92C104.42 51.02 113.22 55.45 114.63 55.93C117.07 56.77 119.42 57 125 57ZM137.7 65.6C132.23 69.5 127.36 69.32 119.47 66.48C114.08 64.54 113.55 64.38 111.77 64.38C109.27 64.37 107.56 65.74 106.53 68.84C104.87 73.82 108.85 77.36 118.83 81.52C121.53 82.65 135.08 87.7 138.83 89.25C146.69 92.49 152.76 95.67 157.7 99.4C170.72 109.24 176.06 111.33 181.41 109.08C182.67 108.522 183.881 107.86 185.03 107.1L187.02 105.82C187.76 105.342 188.507 104.876 189.26 104.42C192.59 102.42 192.08 100.14 188.41 97.08C187.06 95.95 177.75 89.47 174.88 87.17C167.78 81.48 162.97 75.7 160.47 68.83C157.4 60.38 155.58 56.73 153.67 55.44C151.94 54.28 150.31 54.91 147.49 57.34C146.86 57.9 144.09 60.42 143.38 61.04C141.45 62.74 139.67 64.19 137.71 65.59L137.7 65.6ZM138.3 66.4C140.28 64.98 142.09 63.52 144.04 61.8C144.77 61.16 147.52 58.64 148.14 58.1C150.64 55.94 151.89 55.45 153.11 56.27C154.77 57.38 156.55 60.97 159.53 69.17C162.1 76.24 167.03 82.16 174.25 87.95C177.16 90.28 186.46 96.75 187.77 97.85C190.99 100.53 191.33 102.02 188.74 103.57L186.48 104.97L184.49 106.25C183.02 107.18 182.01 107.75 181.02 108.16C176.12 110.23 171.06 108.23 158.3 98.6C153.28 94.81 147.15 91.6 139.2 88.32C135.44 86.77 121.9 81.72 119.2 80.6C109.7 76.63 106.06 73.4 107.47 69.16C108.37 66.45 109.72 65.36 111.77 65.37C113.37 65.37 113.92 65.54 119.13 67.42C127.3 70.36 132.47 70.56 138.29 66.41L138.3 66.4Z" fill="white" fill-opacity="0.70"/>
</g>
<defs>
<clipPath id="clip0_909_173">
<rect width="600" height="600" fill="white" transform="matrix(-1 0 0 1 600 0)"/>
</clipPath>
</defs>
</svg>
