<svg width="100" height="78" viewBox="0 0 100 78" fill="none" xmlns="http://www.w3.org/2000/svg">
<mask id="path-1-inside-1_906_180" fill="white">
<path d="M82.3684 10.6636C79.7454 10.8673 77.5404 10.5554 75.6017 9.58132C74.0382 8.81326 72.6157 7.7843 71.3947 6.53822C70.8561 5.99708 70.3809 5.43047 69.8424 4.73654C69.6333 4.45006 68.7906 3.3105 68.5752 3.03674C66.9025 0.865831 65.4643 0 62.7905 0C59.3818 0 56.5623 1.43879 51.5887 5.08033L50.7143 5.72333C47.8948 7.79238 46.5516 8.70912 44.9043 9.58767C42.2115 11.0137 40.1777 13.1974 37.9031 16.8071C37.0161 18.2204 32.0868 27.0505 30.2114 30.0745C27.9051 33.7669 25.9346 34.9065 21.3158 36.0015C17.3749 36.9246 15.981 37.3575 13.6113 38.6117C10.342 40.3433 7.09804 43.0681 3.62597 47.2253C-0.0678547 51.6436 -0.897844 54.0882 0.9459 54.9986C2.21308 55.6288 3.95543 55.457 9.00513 54.5339L9.44231 54.4575C12.6356 53.8718 14.3209 53.6616 15.7402 53.7444C17.4635 53.8526 18.2239 54.432 18.1225 55.6798C17.7994 59.5696 18.2809 61.6195 19.7825 62.5108C21.0687 63.2684 22.8111 63.1729 26.7393 62.3835C27.8861 62.1543 28.6717 62.7527 29.2863 64.217C29.7869 65.3948 30.0593 66.668 30.5915 69.9021C31.2061 73.6009 31.5989 75.1989 32.4099 76.4913C33.5314 78.2802 35.2357 78.5221 37.618 76.9814C40.2221 75.3007 46.9001 71.4109 46.9951 71.36C48.9954 70.1812 50.8373 68.7499 52.4757 67.101C53.4704 66.0823 54.4398 64.9173 55.4409 63.5358C58.0449 59.9388 60.0788 59.1876 64.932 59.0157C67.9606 58.9075 69.3545 58.7101 71.1602 57.908C71.8002 57.6215 72.4527 57.1631 73.1243 56.5392C74.2275 55.4681 75.2287 54.2959 76.1149 53.0377C76.7358 52.2101 78.928 49.1097 79.2448 48.6641C83.889 42.2532 87.3864 39.3184 91.9356 39.3184C96.7826 39.3184 99.45 38.1915 99.9251 36.1225C100.337 34.3526 99.0255 32.099 96.5798 29.9981C92.4361 26.4329 91.6188 24.7013 91.6188 20.0539C91.6188 18.6151 92.5692 17.4055 94.8058 15.5402C97.3401 13.4202 97.5872 13.191 98.0054 12.3124C98.4489 11.3575 98.2081 10.4599 97.2071 9.62586C96.2757 8.84281 94.9832 8.58816 93.2218 8.73458C91.9546 8.83644 91.34 8.95741 87.944 9.715C85.4793 10.2689 83.9714 10.5363 82.3684 10.6636Z"/>
</mask>
<path d="M82.3684 10.6636C79.7454 10.8673 77.5404 10.5554 75.6017 9.58132C74.0382 8.81326 72.6157 7.7843 71.3947 6.53822C70.8561 5.99708 70.3809 5.43047 69.8424 4.73654C69.6333 4.45006 68.7906 3.3105 68.5752 3.03674C66.9025 0.865831 65.4643 0 62.7905 0C59.3818 0 56.5623 1.43879 51.5887 5.08033L50.7143 5.72333C47.8948 7.79238 46.5516 8.70912 44.9043 9.58767C42.2115 11.0137 40.1777 13.1974 37.9031 16.8071C37.0161 18.2204 32.0868 27.0505 30.2114 30.0745C27.9051 33.7669 25.9346 34.9065 21.3158 36.0015C17.3749 36.9246 15.981 37.3575 13.6113 38.6117C10.342 40.3433 7.09804 43.0681 3.62597 47.2253C-0.0678547 51.6436 -0.897844 54.0882 0.9459 54.9986C2.21308 55.6288 3.95543 55.457 9.00513 54.5339L9.44231 54.4575C12.6356 53.8718 14.3209 53.6616 15.7402 53.7444C17.4635 53.8526 18.2239 54.432 18.1225 55.6798C17.7994 59.5696 18.2809 61.6195 19.7825 62.5108C21.0687 63.2684 22.8111 63.1729 26.7393 62.3835C27.8861 62.1543 28.6717 62.7527 29.2863 64.217C29.7869 65.3948 30.0593 66.668 30.5915 69.9021C31.2061 73.6009 31.5989 75.1989 32.4099 76.4913C33.5314 78.2802 35.2357 78.5221 37.618 76.9814C40.2221 75.3007 46.9001 71.4109 46.9951 71.36C48.9954 70.1812 50.8373 68.7499 52.4757 67.101C53.4704 66.0823 54.4398 64.9173 55.4409 63.5358C58.0449 59.9388 60.0788 59.1876 64.932 59.0157C67.9606 58.9075 69.3545 58.7101 71.1602 57.908C71.8002 57.6215 72.4527 57.1631 73.1243 56.5392C74.2275 55.4681 75.2287 54.2959 76.1149 53.0377C76.7358 52.2101 78.928 49.1097 79.2448 48.6641C83.889 42.2532 87.3864 39.3184 91.9356 39.3184C96.7826 39.3184 99.45 38.1915 99.9251 36.1225C100.337 34.3526 99.0255 32.099 96.5798 29.9981C92.4361 26.4329 91.6188 24.7013 91.6188 20.0539C91.6188 18.6151 92.5692 17.4055 94.8058 15.5402C97.3401 13.4202 97.5872 13.191 98.0054 12.3124C98.4489 11.3575 98.2081 10.4599 97.2071 9.62586C96.2757 8.84281 94.9832 8.58816 93.2218 8.73458C91.9546 8.83644 91.34 8.95741 87.944 9.715C85.4793 10.2689 83.9714 10.5363 82.3684 10.6636Z" stroke="#5F4549" stroke-opacity="0.5" stroke-width="2" mask="url(#path-1-inside-1_906_180)"/>
</svg>
