<svg width="1200" height="630" viewBox="0 0 1200 630" fill="none" xmlns="http://www.w3.org/2000/svg">
<rect width="1200" height="630" fill="#EDA088"/>
<path d="M599.5 353.4H496.463C495.055 353.4 494.351 353.4 494.056 352.938C493.761 352.477 494.057 351.838 494.648 350.56L599.046 125.06C599.42 124.252 599.608 123.848 599.804 123.891C600 123.934 600 124.379 600 125.27V276.1C600 276.336 600 276.454 600.073 276.527C600.146 276.6 600.264 276.6 600.5 276.6H703.537C704.945 276.6 705.649 276.6 705.944 277.062C706.239 277.523 705.943 278.162 705.352 279.44L600.954 504.94C600.58 505.748 600.392 506.152 600.196 506.109C600 506.066 600 505.621 600 504.73V353.9C600 353.664 600 353.546 599.927 353.473C599.854 353.4 599.736 353.4 599.5 353.4Z" fill="#500724"/>
</svg>
