<svg width="600" height="596" viewBox="0 0 600 596" fill="none" xmlns="http://www.w3.org/2000/svg">
<path d="M0 554.13V549.8C0.48 552.16 1 554.15 1.6 555.95C3.6 561.98 6.2 564.21 9.79 562.54C28.76 553.69 43.5 538.4 43.5 523C43.5 506.8 49.87 491.01 60.6 476.7C62.48 474.2 64.26 472.3 66.13 470.7C66.86 470.08 67.58 469.52 68.43 468.9L70.43 467.47C74.11 464.79 75.75 462.19 77.51 454.88C78.26 451.81 78.89 449.86 81.71 441.62L82.34 439.74C85.58 430.16 86.9 424.77 86.51 421.09C86.03 416.66 82.71 415.86 75.21 419.45C72.2379 420.868 69.1823 422.104 66.06 423.15C52.17 427.82 39.1 428.95 23.4 428.57L21.45 428.52L20 428.5C14.8389 428.502 9.72729 429.507 4.95 431.46C3.17896 432.208 1.51454 433.186 0 434.37L0 433.11C1.41663 432.087 2.94269 431.225 4.55 430.54C9.91132 428.342 15.6795 427.313 21.47 427.52L23.42 427.57C39.02 427.95 51.99 426.82 65.74 422.2C68.8246 421.168 71.8436 419.949 74.78 418.55C82.82 414.71 86.94 415.7 87.5 420.98C87.92 424.87 86.58 430.32 83.29 440.06L82.65 441.94C79.85 450.14 79.22 452.09 78.49 455.12C76.67 462.64 74.9 465.46 71.02 468.28L69.02 469.71C68.18 470.31 67.48 470.86 66.77 471.46C64.7671 473.2 62.9658 475.159 61.4 477.3C50.79 491.45 44.5 507.04 44.5 523C44.5 538.88 29.5 554.45 10.21 563.45C5.91 565.46 2.82 562.79 0.65 556.27C0.42 555.59 0.21 554.88 0 554.14L0 554.13ZM0 491.97V489.52L1.46 492.79C3.56 497.59 4.92 503.12 5.72 509.56C6.38 514.86 6.56 518.86 6.76 528.06C6.96 537.38 7.26 540.81 8.39 543.11C9.67 545.71 12.06 545.46 16.68 541.61C33.82 527.31 38.5 518.71 38.5 502.99C38.5 495.82 39.6 490.6 42.2 485.31C44.47 480.64 45.85 478.69 55.6 465.69C57.8846 462.554 60.4268 459.614 63.2 456.9C64.3258 455.819 65.5075 454.798 66.74 453.84C67.12 453.54 67.38 453.32 67.63 453.1C68.7237 452.184 69.6187 451.054 70.26 449.78C71.188 447.871 71.9444 445.883 72.52 443.84L72.89 442.64L73.25 441.49C73.54 440.58 73.73 439.94 73.91 439.33C74.36 437.8 74.65 436.65 74.82 435.67C75.2 433.47 74.94 432.18 73.97 431.52C71.62 429.91 64.69 431.28 50.17 436.46C40.63 439.86 34.05 440.63 22.32 440.72C14.61 440.78 11.89 441.12 9.07 442.84C5.59 444.96 3.23 449.24 1.49 457.1C0.99 459.3 0.5 461.29 0 463.08V459.1L0.51 456.88C2.31 448.78 4.79 444.28 8.55 441.98C11.59 440.13 14.41 439.78 22.32 439.72C33.93 439.63 40.42 438.88 49.83 435.52C64.76 430.2 71.78 428.81 74.53 430.69C75.91 431.63 76.24 433.29 75.81 435.84C75.5698 437.117 75.256 438.379 74.87 439.62L74.21 441.79L73.85 442.94L73.48 444.14C72.8864 446.239 72.1067 448.28 71.15 450.24C70.35 451.77 69.54 452.76 68.29 453.85L67.37 454.62L66.35 455.45C65.45 456.19 64.7 456.85 63.88 457.63C61.1506 460.304 58.6487 463.201 56.4 466.29C46.7 479.22 45.33 481.16 43.09 485.75C40.57 490.9 39.5 495.97 39.5 502.99C39.5 519.03 34.68 527.9 17.32 542.37C12.28 546.57 9.14 546.92 7.49 543.55C6.27 541.05 5.97 537.61 5.76 528.08C5.56 518.92 5.38 514.93 4.73 509.68C3.94 503.34 2.61 497.88 0.54 493.19L0 491.98V491.97ZM0 203.87C7.31 203.71 11.5 207.2 11.5 215C11.5 226.41 6.45 243.35 0 256.5V254.2C5.93 241.48 10.5 225.73 10.5 215C10.5 207.82 6.8 204.7 0 204.87V203.87ZM0 210.92C1.23 211.06 2.18 211.5 2.87 212.23C4.27 213.71 4.47 215.95 4.03 219.81L3.87 221.11C3.65914 222.397 3.53552 223.696 3.5 225C3.5 228.2 2.02 234.52 0 240.9V237.45C1.49 232.32 2.5 227.58 2.5 225C2.5 224.02 2.58 223.25 2.87 220.98L3.03 219.69C3.45 216.13 3.27 214.1 2.15 212.92C1.65 212.39 0.94 212.05 0 211.92L0 210.92ZM0 406.9V405.43C1.1877 403.997 2.18592 402.418 2.97 400.73C4.29 398.03 5.65 394.45 7.53 388.84C15.38 365.29 15.36 362.24 7.78 358.44C5.53 357.32 2.98 357.01 0 357.53V356.51C2.78036 355.958 5.66468 356.323 8.22 357.55C16.46 361.67 16.48 365.15 8.47 389.15C6.59 394.81 5.22 398.42 3.87 401.17C2.9084 403.282 1.60036 405.219 0 406.9ZM33.64 448C35.32 448 36.68 447.77 41.98 446.69L44.36 446.22C52.62 444.65 57.08 444.92 58.89 448.55C60.27 451.3 58.42 454.41 54.14 458.23C52.5059 459.659 50.811 461.017 49.06 462.3C48.12 463 44.17 465.89 43.27 466.57C41.41 467.97 40.3 468.94 39.8 469.6C38.5426 471.263 37.5664 473.121 36.91 475.1C36.98 474.9 32.89 488.75 29.95 497.32C27.25 505.17 24.39 508.04 21.13 505.91C19.02 504.51 17.47 501.67 14.53 494.88C12.55 490.26 12.03 489.12 11.13 487.48C6.58 479.3 7.23 463.58 11.08 454.61C11.6532 453.113 12.5923 451.783 13.8116 450.742C15.0308 449.701 16.4914 448.982 18.06 448.65C20.65 447.99 22.92 447.9 29.84 447.98L33.64 448ZM33.64 450C32.51 450 31.55 450 29.82 449.98C17.75 449.85 14.99 450.55 12.92 455.39C9.29 463.86 8.66 478.94 12.87 486.51C13.83 488.24 14.35 489.39 16.37 494.09C19.09 500.39 20.61 503.17 22.23 504.23C23.87 505.31 25.73 503.43 28.05 496.68C30.4997 489.307 32.8233 481.892 35.02 474.44C35.744 472.267 36.8181 470.227 38.2 468.4C38.85 467.53 40.05 466.5 42.06 464.97C42.98 464.27 46.93 461.4 47.86 460.7C49.88 459.2 51.46 457.93 52.81 456.73C56.44 453.5 57.9 451.03 57.11 449.45C55.9 447.03 52.04 446.8 44.73 448.18L42.38 448.65C36.89 449.76 35.52 450 33.64 450ZM496.84 257.04C500.28 259.75 503.84 262.14 508.28 264.79C509.34 265.43 516.7 269.69 518.63 270.89C529.9 277.89 533.63 284.24 530.98 296.22C529.53 302.74 526.45 307.32 521.59 310.66C517.76 313.29 513.52 314.92 505.51 317.22C493.54 320.67 491.83 321.21 486.69 323.5C483.988 324.7 481.377 326.097 478.88 327.68C467.77 334.75 459.78 335.38 450.92 330.96C447.36 329.19 433.72 319.96 433.72 319.95C432.017 318.875 430.283 317.852 428.52 316.88C412.48 308.05 394.25 292.72 394 285.03C393.89 281.57 395.99 278.46 400.28 274.77C401.31 273.87 402.46 272.96 403.96 271.82C404.68 271.27 407.34 269.26 407.9 268.82C412.37 265.42 415.08 263.03 417.22 260.37C428.34 246.55 443.77 231.69 451.58 228.09C463.64 222.55 471.42 222.32 478.95 228.21C482.2 230.75 484.6 234.75 487.53 241.56C487.82 242.21 489.83 247.01 490.41 248.3C492.03 251.95 493.31 254.1 494.65 255.24C495.37 255.84 496.1 256.44 496.85 257.04H496.84ZM493.35 256.76C491.72 255.37 490.32 253.02 488.58 249.11C488 247.81 485.98 242.99 485.7 242.35C482.89 235.85 480.62 232.05 477.72 229.79C470.89 224.44 463.87 224.64 452.42 229.91C444.97 233.33 429.72 248.03 418.78 261.63C416.51 264.45 413.7 266.93 409.11 270.42L405.17 273.4C403.946 274.325 402.749 275.286 401.58 276.28C397.71 279.61 395.91 282.28 396 284.97C396.21 291.61 414.14 306.69 429.48 315.12C431.24 316.09 432.98 317.12 434.78 318.25C434.9 318.33 448.39 327.47 451.81 329.17C460.03 333.27 467.27 332.69 477.81 325.99C480.39 324.357 483.088 322.917 485.88 321.68C491.13 319.33 492.88 318.78 504.96 315.3C512.76 313.06 516.86 311.48 520.46 309C524.9 305.96 527.69 301.82 529.02 295.78C531.46 284.76 528.19 279.18 517.57 272.58C515.67 271.4 508.34 267.16 507.25 266.5C502.75 263.81 499.12 261.38 495.61 258.6C494.84 258 494.09 257.39 493.35 256.76ZM87.72 237.6C92.02 234.62 95.6 232.6 99.86 230.65C100.7 230.25 101.59 229.87 102.64 229.41L107.01 227.53C113.099 224.904 119.023 221.912 124.75 218.57C133.798 213.284 143.099 208.445 152.62 204.07C156.84 202.12 174.51 194.23 173.79 194.55C192.96 185.93 201.89 187.62 223.29 202.6C231.2 208.14 236.53 215.85 239.74 225.26C242.76 234.09 243.5 241.77 243.5 253.01C243.5 261.33 242.84 265.96 239.82 271.98C235.64 280.34 227.52 288.12 214.24 295.45C189.79 308.94 175.41 323 161.41 343.29C152.58 356.09 113.65 387.5 96.25 397.44C75.04 409.55 48.89 419.5 31 419.5C20.95 419.5 16.33 414.72 16.24 406.13C16.17 399.81 18.3 392.4 22.54 381.81C25.49 374.44 24.56 368.91 20.38 359.52C17.19 352.35 16.5 350.38 16.5 347C16.5 343.65 18.37 340.1 22.02 335.93C24.63 332.93 25.52 332.1 33.92 324.43C39.01 319.77 42 316.83 44.62 313.68C54.08 302.32 57.24 294.21 62.52 268.9C65.64 253.85 69.15 248.62 77.64 243.65C78.44 243.18 81.59 241.4 82.34 240.97C84.1793 239.918 85.9741 238.791 87.72 237.59V237.6ZM88.28 238.42C86.5148 239.638 84.6999 240.782 82.84 241.85L78.14 244.52C69.91 249.34 66.57 254.33 63.49 269.12C58.19 294.57 54.98 302.82 45.39 314.33C42.73 317.52 39.71 320.49 34.59 325.17C26.23 332.81 25.35 333.65 22.77 336.59C19.27 340.6 17.5 343.95 17.5 347.01C17.5 350.19 18.18 352.11 21.3 359.13C25.57 368.73 26.54 374.5 23.46 382.2C19.28 392.67 17.17 399.98 17.24 406.13C17.32 414.19 21.5 418.51 31 418.51C48.67 418.51 74.68 408.61 95.75 396.58C113.03 386.7 151.85 355.38 160.59 342.73C174.67 322.31 189.16 308.14 213.76 294.57C226.88 287.34 234.85 279.7 238.93 271.54C241.85 265.68 242.5 261.19 242.5 253.01C242.5 241.88 241.76 234.28 238.8 225.58C235.65 216.36 230.44 208.83 222.71 203.42C201.58 188.62 193.01 187 174.21 195.47C174.91 195.15 157.25 203.03 153.04 204.97C151.34 205.77 149.74 206.52 148.18 207.27C140.375 211.015 132.725 215.075 125.25 219.44C119.487 222.801 113.526 225.81 107.4 228.45L103.03 230.33C101.99 230.78 101.11 231.17 100.27 231.56C96.0697 233.471 92.0558 235.767 88.28 238.42ZM80.68 250.62C88.38 244.37 92.98 242.45 104.36 239.35C110.48 237.68 113.48 236.4 116.67 233.63C120.47 230.33 124.14 229.11 132.53 227.53C135.28 227.01 136.2 226.83 137.59 226.51C143.07 225.27 147.07 223.58 150.69 220.62C161.11 212.09 176.09 206.51 187 206.51C192.33 206.51 203.77 214.09 212.74 223.67C223.47 235.13 228.7 246.94 225.47 256.17C222.29 265.27 214.08 274.74 202.44 284.03C194 290.76 184.08 297.03 177.22 300.46C173.5 302.32 170.63 305.34 167.45 310.45C166.76 311.55 156.35 330.7 151.42 338.28C145.8 346.93 136.02 355.64 121.19 366.24C118.145 368.411 115.078 370.551 111.99 372.66C111.86 372.75 105.18 377.31 103.39 378.55C96.92 383.01 93.04 385.9 90.34 388.38C78.7 399.05 53.2 403.92 46.64 397.36C44.68 395.4 44.44 393.3 44.69 386.84C45.06 377.42 44.19 372.34 39.74 366.33C37.7415 363.694 35.37 361.363 32.7 359.41C28.77 356.46 26.63 353.3 26.14 349.92C25.17 343.31 30.01 336.86 40.31 328.23C41.89 326.91 46.98 322.79 47.4 322.45C49.2583 320.991 51.0064 319.396 52.63 317.68C56.73 313.05 58.48 308.13 60.43 297.61C60.7031 296.155 60.9698 294.698 61.23 293.24C61.56 291.37 61.83 289.94 62.11 288.51C62.85 284.73 63.61 281.33 64.51 277.88C65.51 274.1 65.89 272.38 66.87 267.51C67.47 264.49 67.8 263.3 68.43 262.04C69.65 259.59 69.7 259.54 80.68 250.62ZM81.32 251.4C70.55 260.14 70.44 260.24 69.32 262.48C68.74 263.64 68.44 264.78 67.85 267.7C66.87 272.59 66.49 274.33 65.48 278.14C64.58 281.57 63.83 284.94 63.09 288.7C62.6359 291.012 62.2059 293.329 61.8 295.65L61.41 297.8C59.43 308.48 57.64 313.54 53.37 318.34C51.7133 320.097 49.9284 321.728 48.03 323.22C47.61 323.56 42.53 327.69 40.96 329C30.92 337.4 26.24 343.65 27.13 349.78C27.58 352.88 29.57 355.81 33.3 358.61C36.3 360.86 38.69 363.23 40.54 365.73C45.17 371.97 46.06 377.25 45.69 386.88C45.44 393.02 45.68 394.98 47.35 396.66C53.45 402.76 78.37 397.99 89.66 387.64C92.41 385.12 96.32 382.21 102.82 377.72L111.42 371.83C115.05 369.35 117.87 367.39 120.61 365.43C135.34 354.89 145.05 346.25 150.58 337.73C155.48 330.19 165.89 311.05 166.6 309.93C169.87 304.67 172.86 301.52 176.78 299.56C183.57 296.16 193.43 289.93 201.81 283.24C213.33 274.06 221.42 264.71 224.53 255.84C227.6 247.06 222.51 235.57 212.01 224.35C203.21 214.95 191.97 207.51 187 207.51C176.33 207.51 161.57 213.01 151.32 221.4C147.56 224.47 143.42 226.21 137.82 227.49C136.41 227.81 135.47 227.99 132.71 228.51C124.5 230.06 120.95 231.24 117.33 234.39C113.99 237.29 110.88 238.61 104.63 240.31C93.37 243.38 88.88 245.25 81.32 251.4ZM212 247.85C212 255.41 211.4 258.77 209.4 262.15C208.3 263.99 201.74 272.2 200.8 273.45C194.84 281.39 191.47 283.73 183.54 287.21C182.2 287.79 181.34 288.21 180.51 288.71C179.96 289.04 179.31 289.37 178.51 289.73C177.8 290.06 174.05 291.63 172.99 292.12C166.94 294.9 164 297.92 164 302.85C164 313.82 145.05 338.97 129.49 347.72C121.31 352.32 108.19 357.08 96.71 359.58C83.38 362.48 74.22 362.06 72.09 357.26C70.77 354.29 67.69 353 60.11 351.45L59.51 351.33C54.67 350.34 52.57 349.78 50.48 348.69C47.56 347.19 46 344.99 46 341.85C46 339.11 47.08 336.08 49.25 332.18C50.1 330.65 51.07 329.05 52.48 326.83C52.32 327.08 55.31 322.43 56.15 321.07C62.84 310.37 66 302.57 66 293.85C66 275.44 77.22 260.48 93.5 250.99C98.72 247.94 102.73 247.68 108.7 248.87C113.74 249.87 114.75 249.77 116.13 247.35C120.63 239.5 123.17 237.85 132 237.85C135.93 237.85 138.97 236.87 142.47 234.69C144.03 233.72 151.14 228.52 153.46 227.01C162.66 221.03 164.8 220.01 178.66 215.06C185.61 212.58 193.84 216.34 200.99 224.18C207.54 231.37 212 240.79 212 247.85ZM210 247.85C210 241.35 205.75 232.37 199.51 225.53C192.84 218.21 185.35 214.79 179.34 216.94C165.61 221.84 163.61 222.79 154.54 228.69C152.3 230.15 145.17 235.37 143.53 236.39C139.73 238.75 136.33 239.85 132 239.85C123.92 239.85 122.02 241.08 117.87 248.35C116.77 250.26 115.36 251.23 113.52 251.44C112.22 251.58 111.62 251.49 108.3 250.83C102.77 249.73 99.23 249.95 94.5 252.71C78.78 261.88 68 276.26 68 293.85C68 303.05 64.72 311.14 57.85 322.13L54.17 327.9C52.78 330.09 51.82 331.67 51 333.15C48.98 336.78 48 339.53 48 341.85C48 346.04 50.87 347.52 59.9 349.37L60.51 349.49C68.78 351.19 72.21 352.62 73.91 356.44C77.08 363.58 109.91 356.44 128.51 345.98C143.49 337.55 162 312.99 162 302.85C162 296.95 165.47 293.37 172.16 290.3C173.26 289.8 177.01 288.22 177.68 287.92C178.42 287.58 179 287.28 179.48 286.99C180.4 286.44 181.33 285.99 182.73 285.37C190.38 282.02 193.48 279.87 199.2 272.25C200.22 270.89 206.67 262.83 207.67 261.14C209.46 258.13 210 255.08 210 247.84V247.85ZM172.82 225.45C172.97 225.35 175.22 223.94 175.77 223.61C176.73 223.04 177.47 222.67 178.2 222.44C180.77 221.61 183.26 222.34 189.24 225.56C204.1 233.56 208.67 248.43 198.42 264.27C194.38 270.51 189.05 273.27 179.7 275.38C178.85 275.58 178.5 275.65 176.57 276.06C170.53 277.35 167.79 278.14 164.97 279.71C161.34 281.73 158.88 284.69 157.47 289.15C149.6 314.08 137.75 332.49 121.19 339.46C104.74 346.39 100.06 347.99 93.21 348.35C88.27 348.6 83.41 347.7 77.81 345.46C75.8717 344.726 73.9871 343.857 72.17 342.86C68.15 340.53 67.03 338.12 67.67 333.55C67.97 331.42 71.44 318.02 72.51 312.9C73.14 309.85 73.7 306.76 74.26 303.21C74.7388 300.248 75.1888 297.281 75.61 294.31C77.03 284.9 78.11 280.04 80.1 275.66C82.56 270.23 86.23 266.63 91.82 264.53C98.41 262.06 102.36 261.43 109.85 261C114.6 260.73 116.53 260.36 118.85 258.95C119.46 258.58 120.07 258.14 120.67 257.62C121.88 256.576 123.007 255.44 124.04 254.22C124.63 253.53 126.42 251.32 126.67 251.03C130.03 247.03 132.97 245.5 139 245.5C142.94 245.5 144.9 244.58 147.18 242.14C147.01 242.32 149.93 239 151.03 237.92C153.055 235.951 155.339 234.269 157.82 232.92C159.32 232.09 160.97 231.3 162.81 230.54C166.288 229.132 169.637 227.426 172.82 225.44V225.45ZM158.3 233.79C155.899 235.096 153.689 236.724 151.73 238.63C150.423 239.999 149.149 241.399 147.91 242.83C145.45 245.46 143.23 246.5 139 246.5C133.28 246.5 130.61 247.89 127.43 251.67C127.2 251.95 125.4 254.17 124.8 254.87C123.737 256.129 122.576 257.302 121.33 258.38C120.68 258.93 120.03 259.41 119.37 259.81C116.87 261.32 114.82 261.71 109.9 262C102.51 262.42 98.65 263.04 92.18 265.47C86.84 267.47 83.36 270.87 81.01 276.07C79.08 280.34 78.01 285.14 76.6 294.46L75.95 298.8L75.25 303.37C74.68 306.93 74.13 310.04 73.49 313.1C72.41 318.28 68.95 331.63 68.66 333.69C68.07 337.86 69.01 339.87 72.67 341.99C74.02 342.76 75.77 343.57 78.19 344.54C83.65 346.72 88.37 347.59 93.16 347.34C99.85 347 104.48 345.41 120.81 338.54C137.02 331.71 148.73 313.53 156.52 288.84C158.01 284.14 160.64 280.98 164.49 278.84C167.42 277.21 170.23 276.39 176.36 275.08C178.28 274.68 178.64 274.59 179.48 274.4C188.6 272.34 193.72 269.7 197.58 263.73C207.5 248.39 203.13 234.18 188.76 226.44C183.01 223.34 180.73 222.68 178.51 223.39C177.86 223.59 177.18 223.93 176.28 224.47C175.73 224.79 173.51 226.19 173.35 226.29C170.119 228.304 166.72 230.033 163.19 231.46C161.39 232.21 159.77 232.98 158.3 233.79ZM115.91 266.51C132.06 263.64 142.27 265.54 148.38 272.67C153.46 278.6 149.51 294.09 142.45 308.22C137.66 317.8 131.85 324.43 119.29 333.41C105.14 343.51 83.79 345.61 78.58 337.26C76.72 334.29 76.48 329.12 77.52 321.53C78.3 315.85 79.38 310.82 82.25 298.55L82.37 298.04C83.96 291.24 84.74 287.73 85.51 283.9C86.96 276.65 89.25 272.43 92.77 270.16C95.58 268.36 98.3 267.88 105.1 267.54C110.43 267.27 112.66 267.08 115.91 266.51ZM116.09 267.49C112.79 268.08 110.53 268.27 105.15 268.54C98.53 268.87 95.92 269.32 93.31 271C90.06 273.1 87.89 277.09 86.49 284.1C85.72 287.94 84.93 291.45 83.34 298.27L83.22 298.77C80.36 311.01 79.29 316.03 78.52 321.67C77.49 329.03 77.73 334.03 79.42 336.74C84.24 344.44 104.96 342.41 118.71 332.59C131.14 323.71 136.84 317.2 141.55 307.78C148.41 294.06 152.3 278.78 147.62 273.33C141.78 266.52 131.92 264.68 116.09 267.49ZM132 272.5C139.12 272.5 142.66 275.58 143.25 281.2C143.67 285.22 142.82 289.34 140.48 297.14C137.92 305.66 122.12 322.52 113.28 328.42C106.27 333.09 93.26 334.09 86.71 329.41C82.72 326.56 83.18 317.33 86.73 302.95C87.41 300.2 88.2 297.3 89.1 294.19C90.0733 290.797 91.09 287.417 92.15 284.05L92.52 282.85C94 278.05 97.62 275.1 103.25 273.58C107.65 272.38 112.79 272.08 120.73 272.25L124.62 272.35C128.49 272.46 130.04 272.5 132 272.5ZM132 273.5C130.03 273.5 128.47 273.46 124.59 273.35L120.71 273.25C112.86 273.08 107.79 273.38 103.51 274.55C98.19 275.98 94.84 278.71 93.48 283.15C92.9504 284.888 92.417 286.624 91.88 288.36C91.2 290.56 90.61 292.53 90.06 294.46C89.16 297.56 88.38 300.45 87.7 303.19C84.27 317.07 83.83 326.12 87.3 328.59C93.47 333.01 106.03 332.04 112.72 327.59C121.38 321.81 137.05 305.1 139.52 296.86C141.82 289.19 142.66 285.15 142.25 281.3C141.72 276.2 138.61 273.5 132 273.5ZM114.21 280.5C117.118 280.566 120.002 281.037 122.78 281.9C128.2 283.68 131.5 286.93 131.5 292C131.5 301.59 121.99 309.2 109.16 313.47C99.34 316.75 95.54 311.68 97.5 296.93C98.34 290.65 101.32 286.26 105.74 283.47C108.308 281.863 111.201 280.848 114.21 280.5ZM113.61 281.58C111.003 281.981 108.506 282.91 106.27 284.31C102.09 286.95 99.29 291.09 98.5 297.07C96.61 311.18 99.86 315.52 108.84 312.53C121.3 308.37 130.5 301 130.5 292C130.5 287.44 127.52 284.5 122.47 282.85C119.819 281.995 117.055 281.54 114.27 281.5C114.14 281.5 113.92 281.53 113.61 281.58ZM194.48 258.13C191.76 267.93 179.55 267.99 167.76 261.43C157.59 255.79 153.96 243.45 162.76 238.56C164.288 237.719 165.783 236.818 167.24 235.86L169.27 234.56C170.541 233.735 171.849 232.967 173.19 232.26C177.92 229.83 182.01 229.46 187.19 231.54C196.35 235.2 198.17 244.87 194.49 258.14L194.48 258.13ZM173.65 233.15C172.337 233.842 171.055 234.593 169.81 235.4L167.78 236.7C166.94 237.23 166.28 237.65 165.62 238.05C164.8 238.55 164.02 239.01 163.24 239.44C155.3 243.84 158.65 255.24 168.24 260.56C179.55 266.85 191.04 266.79 193.52 257.86C197.09 245.03 195.37 235.89 186.82 232.46C181.92 230.51 178.13 230.84 173.65 233.16V233.15ZM191.5 245.3C191.5 251 189.06 254.3 184.86 255.26C181.56 256.02 177.3 255.21 173.78 253.45L171.89 252.51C171.22 252.17 170.71 251.89 170.26 251.63C166.19 249.25 166.13 246.66 170.6 240.7C177.4 231.64 191.5 233.54 191.5 245.3ZM190.5 245.3C190.5 240 187.63 236.75 183.18 236.14C178.95 235.57 174.19 237.58 171.4 241.3C167.25 246.84 167.3 248.74 170.76 250.77C171.2 251.02 171.69 251.28 172.35 251.62L174.22 252.55C177.56 254.22 181.58 254.99 184.64 254.29C188.37 253.43 190.5 250.55 190.5 245.29V245.3ZM522.22 446.54C525.28 448.07 528.76 448.56 532.9 448.24C535.43 448.04 537.81 447.62 541.7 446.75C547.06 445.56 548.03 445.37 550.03 445.21C552.81 444.98 554.85 445.38 556.32 446.61C557.9 447.92 558.28 449.33 557.58 450.83C556.92 452.21 556.53 452.57 552.53 455.9C549 458.83 547.5 460.73 547.5 462.99C547.5 470.29 548.79 473.01 555.33 478.61C559.19 481.91 561.26 485.45 560.61 488.23C559.86 491.48 555.65 493.25 548 493.25C540.82 493.25 535.3 497.86 527.97 507.93C527.47 508.63 524.01 513.5 523.03 514.8C521.631 516.776 520.051 518.618 518.31 520.3C517.25 521.28 516.22 522 515.21 522.45C512.36 523.71 510.16 524.02 505.38 524.19C497.72 524.46 494.51 525.64 490.4 531.29C488.82 533.46 487.29 535.29 485.72 536.89C483.134 539.48 480.227 541.728 477.07 543.58C476.92 543.66 466.38 549.77 462.27 552.41C458.51 554.83 455.82 554.45 454.05 551.64C452.77 549.61 452.15 547.1 451.18 541.29C450.34 536.21 449.91 534.21 449.12 532.36C448.15 530.06 446.91 529.12 445.1 529.48C438.9 530.72 436.15 530.87 434.12 529.68C431.75 528.28 430.99 525.06 431.5 518.95C431.66 516.99 430.46 516.08 427.74 515.91C425.5 515.78 422.84 516.11 417.8 517.03L417.11 517.15C409.14 518.6 406.39 518.87 404.39 517.88C401.48 516.45 402.79 512.61 408.62 505.67C414.1 499.14 419.22 494.86 424.38 492.14C428.12 490.17 430.32 489.49 436.54 488.04C443.83 486.32 446.94 484.53 450.58 478.73C453.54 473.98 461.32 460.11 462.72 457.89C466.31 452.22 469.52 448.79 473.77 446.55C476.37 445.17 478.49 443.73 482.94 440.48L484.32 439.47C492.17 433.75 496.62 431.49 502 431.49C506.22 431.49 508.49 432.85 511.13 436.26C511.47 436.69 512.8 438.48 513.13 438.93C513.98 440.02 514.73 440.91 515.58 441.76C517.507 443.717 519.752 445.334 522.22 446.54ZM521.78 447.44C518.98 446.04 516.78 444.41 514.86 442.47C513.99 441.57 513.21 440.66 512.35 439.54C512 439.08 510.67 437.29 510.34 436.87C507.87 433.69 505.88 432.49 502 432.49C496.91 432.49 492.6 434.69 484.91 440.27L483.53 441.28C479.04 444.57 476.9 446.02 474.23 447.43C470.17 449.58 467.07 452.88 463.57 458.43C462.18 460.62 454.41 474.48 451.42 479.25C447.63 485.32 444.29 487.23 436.76 489C430.63 490.45 428.49 491.1 424.84 493.02C419.8 495.68 414.79 499.88 409.38 506.32C403.95 512.78 402.85 516.01 404.83 516.98C406.53 517.82 409.31 517.55 416.93 516.17L417.63 516.04C422.75 515.11 425.45 514.77 427.8 514.92C431.01 515.12 432.72 516.4 432.5 519.03C432.02 524.79 432.7 527.67 434.63 528.81C436.36 529.83 438.97 529.69 444.9 528.5C447.25 528.03 448.9 529.28 450.04 531.97C450.87 533.92 451.31 535.97 452.11 540.77L452.17 541.13C453.11 546.78 453.72 549.24 454.89 551.11C456.35 553.41 458.41 553.71 461.73 551.57C465.87 548.91 476.42 542.8 476.54 542.72C479.628 540.91 482.471 538.712 485 536.18C486.668 534.471 488.205 532.639 489.6 530.7C493.92 524.75 497.41 523.47 505.34 523.2C510 523.03 512.1 522.73 514.8 521.53C515.7 521.13 516.65 520.47 517.64 519.57C519.336 517.93 520.876 516.136 522.24 514.21C523.2 512.91 526.64 508.05 527.17 507.34C534.67 497.03 540.39 492.25 548 492.25C555.24 492.25 559.02 490.65 559.64 488.01C560.18 485.69 558.28 482.46 554.67 479.37C547.92 473.58 546.5 470.58 546.5 462.99C546.5 460.32 548.14 458.25 551.89 455.13C555.69 451.96 556.12 451.57 556.67 450.4C557.17 449.34 556.92 448.41 555.68 447.37C553.45 445.52 550.96 445.72 541.92 447.73C537.99 448.6 535.57 449.03 532.98 449.23C528.68 449.57 525.01 449.05 521.78 447.43V447.44ZM493.78 443.54C499.43 440.72 502.74 441.34 506.68 444.91C507.24 445.41 509.28 447.38 509.7 447.78C513.9 451.67 517.77 453.49 524 453.49C535.37 453.49 538 454.9 540.1 461.58C540.36 462.41 541.45 466.18 541.76 467.2C542.56 469.83 543.4 472.23 544.46 474.8C546.59 479.97 547.1 483.12 546.18 485.04C545.41 486.65 544.08 487.22 540.81 487.83C538.49 488.26 538.01 488.36 536.96 488.68C535.11 489.26 533.61 490.08 532.36 491.34C531.36 492.34 530.34 493.47 529.05 495C528.45 495.71 526.14 498.5 525.59 499.14C518.39 507.68 513.16 511.49 506 511.49C502.24 511.49 499.05 512.77 495.41 515.49C493.57 516.86 483.79 525.8 480.19 528.55C477.354 530.726 474.363 532.691 471.24 534.43C466.66 536.97 463.89 537.65 462.26 536.66C460.94 535.86 460.61 534.59 460.32 531.16C460.277 530.556 460.224 529.952 460.16 529.35C459.62 524.62 457.92 522.49 453 522.49C445.89 522.49 444.15 521.26 443.27 517.08C442.31 512.47 441.17 510.38 436.72 507.41C432.75 504.76 432.41 501.99 435.2 499.19C437.2 497.19 439.83 495.69 446.55 492.32C453.16 489.02 455.75 487.52 457.65 485.64C459.644 483.676 461.42 481.504 462.95 479.16C463.93 477.66 464.78 476.12 465.83 474.03L467.95 469.73C468.86 467.9 469.67 466.36 470.56 464.75C476.3 454.43 480.93 449.97 493.78 443.55V443.54ZM471.44 465.24C470.55 466.83 469.75 468.36 468.84 470.18L466.73 474.48C465.85 476.278 464.868 478.024 463.79 479.71C462.219 482.108 460.395 484.331 458.35 486.34C456.35 488.34 453.73 489.85 447 493.21C440.4 496.51 437.8 498.01 435.9 499.9C433.57 502.24 433.82 504.27 437.28 506.57C441.98 509.71 443.24 512.03 444.25 516.87C445.03 520.57 446.34 521.49 453 521.49C458.5 521.49 460.57 524.06 461.15 529.24C461.21 529.74 461.24 530.06 461.32 531.08C461.57 534.14 461.87 535.25 462.78 535.8C463.98 536.54 466.47 535.93 470.76 533.55C473.838 531.835 476.786 529.896 479.58 527.75C483.13 525.05 492.92 516.1 494.82 514.68C498.61 511.85 502 510.49 506 510.49C512.77 510.49 517.8 506.82 524.83 498.49L528.28 494.36C529.351 493.074 530.475 491.833 531.65 490.64C533.05 489.266 534.773 488.265 536.66 487.73C537.76 487.39 538.26 487.28 540.63 486.84C543.58 486.29 544.7 485.82 545.28 484.61C546.04 483.02 545.56 480.11 543.54 475.18C542.503 472.662 541.589 470.096 540.8 467.49C540.49 466.46 539.4 462.69 539.14 461.88C537.19 455.68 534.98 454.49 524 454.49C517.5 454.49 513.39 452.56 509.02 448.51C508.58 448.11 506.56 446.14 506.01 445.65C502.36 442.35 499.49 441.8 494.22 444.44C481.55 450.77 477.07 455.09 471.44 465.24ZM527.3 477.17C524.32 483.62 510.52 492.43 500.56 492.43C495.23 492.43 493 489.45 493.45 484.57C493.77 481.09 495.55 476.66 497.38 473.96L498.9 471.64C499.494 470.717 500.121 469.817 500.78 468.94C504.44 464.14 508.63 461.49 514.4 461.49C523.46 461.49 530.15 471.01 527.3 477.17ZM526.4 476.75C528.92 471.28 522.75 462.49 514.4 462.49C509 462.49 505.07 464.97 501.58 469.55C500.98 470.35 500.41 471.15 499.73 472.19C499.73 472.19 498.53 474.06 498.21 474.52C496.47 477.09 494.75 481.37 494.44 484.66C494.04 488.99 495.87 491.43 500.56 491.43C510.13 491.43 523.58 482.85 526.39 476.75H526.4ZM456.73 497.49C458.81 497.67 461.17 498.3 462.61 499.29C464.73 500.76 464.81 502.89 462.35 505.34C457.21 510.49 449.5 509.68 449.5 503.99C449.5 499.33 452.64 497.15 456.73 497.49ZM456.64 498.49C453.08 498.19 450.5 499.99 450.5 503.99C450.5 508.57 457.03 509.25 461.65 504.64C463.68 502.6 463.63 501.21 462.05 500.12C460.78 499.24 458.57 498.65 456.65 498.49H456.64ZM486.23 272.54C490.87 274.89 503.5 280.78 505.62 281.97C508.304 283.39 510.696 285.303 512.67 287.61C514.042 289.252 515.295 290.99 516.42 292.81C518.82 296.59 516.46 300.47 510.22 304.44C505.25 307.6 498.04 310.74 488.27 314.26C483.43 316 468.64 320.94 467.17 321.46C460.58 323.79 452.32 321.56 442.03 315.6C438.1 313.33 434.03 310.6 429.09 307.06C426.86 305.45 419.59 300.07 418.39 299.21C415.637 297.129 412.755 295.225 409.76 293.51C404.94 290.91 405.31 286.87 409.93 281.38C413.2 277.5 414.1 276.71 428.03 265.05C431.059 262.546 434.023 259.965 436.92 257.31C438.547 255.812 440.121 254.258 441.64 252.65C446.72 247.22 451.44 246.16 456.61 248.73C458.85 249.83 461.14 251.58 464.04 254.25C465.52 255.62 470.98 260.97 472.02 261.95C477.22 266.86 481.48 270.15 486.22 272.55L486.23 272.54ZM485.77 273.44C480.92 270.99 476.59 267.65 471.33 262.68C470.28 261.68 464.83 256.34 463.36 254.99C460.53 252.38 458.3 250.69 456.16 249.62C451.41 247.26 447.16 248.22 442.36 253.33C440.828 254.955 439.241 256.526 437.6 258.04C435.12 260.34 432.44 262.66 428.68 265.81C414.82 277.41 413.91 278.21 410.7 282.02C406.42 287.1 406.12 290.42 410.24 292.63C412.47 293.83 415.14 295.62 418.98 298.4C420.18 299.27 427.45 304.64 429.68 306.25C433.82 309.291 438.108 312.125 442.53 314.74C452.59 320.56 460.6 322.72 466.83 320.52C468.31 320 483.1 315.05 487.93 313.32C497.63 309.82 504.79 306.71 509.68 303.6C515.52 299.89 517.58 296.5 515.58 293.34C514.479 291.562 513.252 289.864 511.91 288.26C510.012 286.042 507.711 284.203 505.13 282.84C503.05 281.68 490.45 275.79 485.77 273.44ZM446.94 281.49C450.05 281.12 452.64 281.36 455.34 282.19C457.49 282.85 458.08 283.12 463.98 285.96C468.73 288.25 472.37 289.82 477.17 291.52C485.55 294.49 488.49 297.75 486 301.28C483.92 304.22 477.96 307.2 468.16 310.46C459.71 313.28 452.68 312.81 446.73 309.56C442.08 307.01 438.4 303.06 434.58 297.26C431.68 292.85 431.85 289.06 434.74 286.2C437.22 283.75 441.61 282.13 446.94 281.5V281.49ZM447.06 282.49C441.93 283.09 437.73 284.65 435.44 286.91C432.91 289.41 432.76 292.68 435.42 296.71C439.15 302.39 442.72 306.22 447.22 308.68C452.92 311.79 459.65 312.25 467.84 309.52C477.43 306.32 483.28 303.4 485.18 300.7C487.12 297.95 484.68 295.25 476.83 292.46C471.99 290.74 468.33 289.16 463.55 286.86C457.71 284.05 457.13 283.79 455.05 283.15C452.464 282.345 449.733 282.119 447.05 282.49H447.06ZM202.5 496.38C202.5 501.16 201.05 503.94 198.07 505.31C195.78 506.36 193.52 506.54 187.28 506.51L185.5 506.5C176.31 506.5 168.5 498.85 168.5 491C168.5 483.41 179.1 480.49 188.24 485.56C191.02 487.11 192.45 487.5 196.81 488.31C201.25 489.14 202.5 490.58 202.5 496.38ZM201.5 496.38C201.5 491.08 200.6 490.04 196.62 489.3C192.17 488.47 190.66 488.05 187.76 486.44C179.19 481.68 169.5 484.34 169.5 491C169.5 498.3 176.86 505.5 185.5 505.5H187.29C193.35 505.54 195.55 505.36 197.65 504.4C200.25 503.2 201.5 500.8 201.5 496.38ZM234.83 378.53C238.54 377.22 243.53 375.83 250.93 373.98C253.51 373.33 267.46 369.94 271.49 368.93C291.08 364 303.04 360.03 309.72 355.58C324.65 345.63 346.59 321.7 353.55 307.78C355.8 303.28 358.2 301.4 361.23 301.53C362.49 301.59 363.84 301.98 365.55 302.73C366.751 303.251 367.932 303.818 369.09 304.43L370.35 305.06C375.13 307.4 378.73 308.5 383 308.5C390.2 308.5 393.01 311.57 391.35 316.41C389.95 320.47 385.43 325.32 380.25 328.43C371.95 333.41 368.5 345.73 368.5 362C368.5 365.59 367.13 368.28 364.52 370.36C362.54 371.94 360.32 372.96 356.05 374.52L355.03 374.89C350.18 376.64 348.05 377.66 346.35 379.35C341.26 384.45 333.81 386.5 326 386.5C324.62 386.5 323.53 387.42 322.01 389.6C321.72 390.01 320.69 391.55 320.54 391.78C317.86 395.7 315.61 397.5 312 397.5C304.16 397.5 301.26 398.43 290.24 404.44C285.06 407.26 281.44 408.02 275.58 408.12C275.32 408.12 275.11 408.12 274.66 408.14C269.84 408.2 267.54 408.44 264.15 409.48C261.112 410.472 258.143 411.661 255.26 413.04C253.09 414.04 244.73 418.05 245.03 417.91C237.24 421.61 231.71 423.89 226.13 425.48C213.72 429.03 207.55 427.72 198.71 421.41C196.13 419.56 195.99 416.98 197.88 413.79C199.33 411.34 201.78 408.7 205.96 404.82L207.74 403.18C211.66 399.58 212.22 399.07 213.64 397.65C215.96 395.33 216.76 394.15 219.12 390.02C221.05 386.66 222.49 384.91 225.39 382.96C227.69 381.42 230.73 379.98 234.83 378.53ZM235.17 379.47C231.14 380.89 228.17 382.3 225.95 383.79C223.2 385.64 221.85 387.28 219.99 390.52C217.59 394.72 216.75 395.96 214.35 398.35C212.92 399.79 212.35 400.31 208.41 403.92L206.64 405.55C202.54 409.37 200.12 411.96 198.74 414.3C197.09 417.09 197.2 419.1 199.29 420.6C207.89 426.74 213.75 427.98 225.86 424.52C231.36 422.95 236.86 420.68 244.6 417.01C244.3 417.15 252.66 413.13 254.84 412.13C257.762 410.735 260.771 409.532 263.85 408.53C267.36 407.44 269.74 407.2 274.65 407.13H275.56C281.28 407.03 284.74 406.3 289.76 403.56C300.92 397.48 303.96 396.5 312 396.5C315.19 396.5 317.2 394.9 319.71 391.22L321.19 389.02C322.89 386.59 324.19 385.5 326 385.5C333.57 385.5 340.78 383.5 345.65 378.65C347.48 376.81 349.69 375.75 354.69 373.95L355.71 373.58C364.31 370.45 367.5 367.91 367.5 362C367.5 345.4 371.03 332.8 379.74 327.57C384.74 324.57 389.09 319.9 390.4 316.09C391.82 311.96 389.57 309.5 383 309.5C378.55 309.5 374.81 308.36 369.91 305.96C362.39 302.29 363.13 302.62 361.19 302.53C358.61 302.43 356.54 304.05 354.45 308.23C347.41 322.3 325.35 346.37 310.28 356.42C303.47 360.96 291.44 364.94 271.73 369.9C267.7 370.92 253.75 374.3 251.17 374.95C243.8 376.79 238.84 378.18 235.17 379.47ZM252 383.5C254.08 383.5 256 383.3 259.25 382.81C264.47 382.04 265.89 381.91 267.71 382.31C270.23 382.87 271.5 384.66 271.5 388C271.5 392.05 269.23 395.29 264.88 398.11C261.64 400.21 258.35 401.64 250.73 404.51L250.46 404.61L248.18 405.47C245.14 406.63 242.91 407.99 238.85 410.9L238.05 411.47C229.86 417.35 224.7 419.5 215 419.5C210.02 419.5 208.12 417.47 209.25 413.88C210.12 411.07 212.83 407.32 217.05 402.75C218.31 401.38 219.69 399.95 221.2 398.45C224.37 395.31 232.45 387.84 232.65 387.65C233.11 387.18 233.58 386.76 234.05 386.39C237.43 383.68 239.82 383.31 248.23 383.46C249.88 383.49 250.86 383.5 252 383.5ZM252 384.5C250.85 384.5 249.87 384.49 248.21 384.46C240.03 384.32 237.81 384.66 234.67 387.17C234.23 387.52 233.79 387.91 233.35 388.35C233.15 388.56 225.05 396.04 221.9 399.17C220.496 400.56 219.122 401.98 217.78 403.43C213.66 407.9 211.02 411.55 210.2 414.18C209.3 417.06 210.65 418.5 215 418.5C224.46 418.5 229.44 416.43 237.46 410.66L238.26 410.09C242.39 407.13 244.68 405.73 247.82 404.53L250.12 403.67L250.37 403.57C257.92 400.73 261.17 399.32 264.34 397.27C268.42 394.62 270.5 391.67 270.5 388C270.5 385.11 269.53 383.74 267.5 383.3C265.85 382.93 264.45 383.05 259.4 383.8C256.1 384.3 254.14 384.5 252 384.5ZM364.47 339.16C362.59 344.6 362.49 345.92 363.49 351.92C364.67 358.98 362.11 368.5 358 368.5C357.496 368.501 356.992 368.524 356.49 368.57L355.85 368.61C352.99 368.79 351.02 368.78 348.91 368.44C342.36 367.38 338.5 363.3 338.5 355C338.5 341.1 340.64 335.31 346.63 328.67C347.597 327.51 348.442 326.254 349.15 324.92C349.74 323.89 351.93 319.79 351.87 319.91C356.31 311.77 359.58 308.38 364.12 309.51C365.29 309.81 366.32 310.28 367.7 311.1L369.09 311.94C370.075 312.563 371.112 313.098 372.19 313.54C372.89 313.81 373.99 313.86 376.94 313.8L377.66 313.79C380.82 313.74 382.44 313.87 383.49 314.45C385.1 315.34 384.69 317.01 382.35 319.35C381.079 320.619 379.792 321.873 378.49 323.11C367.89 333.21 365.74 335.51 364.47 339.16ZM363.53 338.84C364.87 334.94 366.99 332.67 377.8 322.38C379.35 320.91 380.53 319.76 381.65 318.65C383.59 316.7 383.82 315.77 383 315.32C382.18 314.87 380.63 314.74 377.68 314.79L376.96 314.8C373.82 314.86 372.7 314.82 371.82 314.46C370.76 314.05 369.85 313.56 368.57 312.79L367.19 311.96C366.167 311.307 365.051 310.811 363.88 310.49C360 309.52 356.96 312.66 352.75 320.39C352.82 320.26 350.61 324.37 350.02 325.41C349.276 326.805 348.387 328.119 347.37 329.33C341.56 335.8 339.5 341.33 339.5 355C339.5 362.79 342.98 366.47 349.07 367.45C351.08 367.78 352.99 367.79 355.78 367.61C356.19 367.587 356.6 367.564 357.01 367.54C357.43 367.51 357.74 367.5 358 367.5C361.2 367.5 363.6 358.6 362.5 352.08C361.48 345.92 361.59 344.44 363.53 338.84ZM354.27 351.26C354.85 351.78 356.77 353.16 356.82 353.19C358.78 354.76 358.86 356.5 356.83 359.55C353.09 365.19 348 362.64 348 355C348 351.19 348.51 349.33 350.07 348.98C351.25 348.72 352.07 349.28 354.27 351.26ZM352.93 352.74C351.43 351.39 350.7 350.89 350.5 350.94C350.33 350.97 350 352.17 350 355C350 360.87 352.67 362.21 355.17 358.45C356.67 356.19 356.64 355.61 355.57 354.75C355.6 354.78 353.62 353.35 352.93 352.75V352.74ZM575.83 222.55C578.03 221.45 579.5 220.89 581.71 220.19L581.99 220.1C585.028 219.204 587.972 218.015 590.78 216.55C594.95 214.47 597.13 214.67 597.74 217.39C598.18 219.39 597.94 221.4 596.49 230.09C594.22 243.71 587.33 256.23 575.32 266.39C571.02 270.02 567.91 270.78 565.57 268.83C563.69 267.26 562.47 264.26 560.96 258.35C560.66 257.2 559.53 252.52 559.24 251.39C558.466 248.28 557.562 245.204 556.53 242.17C554.13 235.35 553.5 231.39 554.43 229.23C555.2 227.4 556.51 226.99 560.03 226.78C561.52 226.69 562.12 226.64 563 226.5L564.95 226.17C565.67 226.05 566.17 225.97 566.63 225.88C567.73 225.68 568.55 225.5 569.34 225.28C571.04 224.79 572.76 224.08 575.83 222.55ZM576.27 223.45C573.16 224.99 571.39 225.74 569.62 226.24C568.78 226.47 567.93 226.66 566.81 226.87C565.544 227.103 564.274 227.313 563 227.5C562.23 227.63 561.61 227.69 560.08 227.78C556.95 227.96 555.91 228.29 555.34 229.63C554.56 231.47 555.14 235.25 557.47 241.83C558.514 244.893 559.428 248 560.21 251.14L561.93 258.1C563.39 263.8 564.55 266.68 566.21 268.06C568.08 269.62 570.7 268.99 574.68 265.62C586.5 255.62 593.28 243.32 595.51 229.92C596.91 221.47 597.16 219.41 596.76 217.61C596.35 215.74 594.9 215.61 591.22 217.45C588.366 218.935 585.376 220.141 582.29 221.05L582.01 221.15C580.033 221.748 578.113 222.517 576.27 223.45ZM571.77 230.03C573.14 229.71 574.27 229.28 575.67 228.61C576.02 228.43 578.24 227.3 578.99 226.94C580.49 226.23 581.96 225.63 583.69 225.05C586.39 224.15 588.33 224.28 589.57 225.45C590.55 226.39 590.91 227.71 590.98 229.63C591 230.03 591 230.33 591 231C591 236.63 586.37 247.88 579.66 253.75C575.32 257.55 572.35 258.42 569.74 256.27C567.68 254.57 566.24 251.62 563.07 243.36C561.21 238.53 561.02 235.26 562.39 233.16C563.51 231.46 565.29 230.8 568.22 230.46L569.48 230.34C570.67 230.22 571.23 230.15 571.78 230.03H571.77ZM569.67 232.33L568.45 232.45C566.05 232.72 564.75 233.21 564.06 234.26C563.13 235.69 563.28 238.36 564.93 242.64C567.95 250.48 569.34 253.35 571.01 254.73C572.64 256.07 574.65 255.48 578.34 252.25C584.6 246.77 589 236.08 589 231C589 230.36 589 230.07 588.98 229.71C588.93 228.27 588.68 227.38 588.19 226.91C587.59 226.34 586.39 226.26 584.32 226.95C582.793 227.455 581.3 228.056 579.85 228.75C579.13 229.09 576.92 230.22 576.53 230.41C575.163 231.097 573.719 231.62 572.23 231.97C571.57 232.13 570.95 232.21 569.67 232.33ZM341.94 143.35C340.35 147.65 338.4 150.6 334.8 154.75L332.2 157.72C331.29 158.769 330.413 159.846 329.57 160.95C327.775 163.295 326.208 165.807 324.89 168.45C322.04 174.15 317.75 178.63 312.04 182.34C307.79 185.1 303.79 186.96 296.37 189.93C285.36 194.33 279.94 191.19 269.15 173.53C266.29 168.84 260.35 164.9 251.17 160.87C248.17 159.54 238.29 155.63 236.74 154.95C231.78 152.77 229.7 151.23 230.32 149.1C230.99 146.78 235.62 145.05 245.8 143.02C262.43 139.7 272.73 139.2 285.73 140C293.63 140.49 295.4 140.5 298.47 139.74C300.46 139.26 302.39 138.44 304.47 137.14L307.26 135.43C317.12 129.29 320.2 127.47 324.56 125.53C330.59 122.82 335.13 122.21 338.5 124.13C345.7 128.25 346.18 131.83 341.94 143.35ZM340.06 142.65C344.01 131.95 343.66 129.39 337.5 125.87C334.84 124.35 330.88 124.88 325.38 127.35C321.14 129.25 318.08 131.05 308.31 137.12L305.52 138.85C303.495 140.14 301.277 141.098 298.95 141.69C295.59 142.5 293.73 142.49 285.61 141.99C272.77 141.21 262.64 141.7 246.2 144.99C241.3 145.96 237.75 146.87 235.41 147.74C233.38 148.5 232.37 149.19 232.24 149.65C232.08 150.22 233.72 151.44 237.54 153.11C239.04 153.78 248.93 157.69 251.98 159.04C261.5 163.23 267.72 167.34 270.85 172.48C281.2 189.41 285.72 192.04 295.63 188.08C302.93 185.15 306.84 183.33 310.96 180.66C316.38 177.13 320.43 172.91 323.11 167.56C324.55 164.66 326.13 162.16 327.97 159.74C328.842 158.602 329.749 157.491 330.69 156.41L333.29 153.44C336.75 149.45 338.57 146.69 340.06 142.65ZM333.42 142.26C325.48 155.06 314.89 164.01 300.12 167.49C292.3 169.32 287.65 166.7 287 161.56C286.45 157.11 289.29 152.5 293 152.5C296.02 152.5 298.6 150.82 308.38 143.34C309.85 142.22 310.95 141.38 312.04 140.6C316.44 137.4 319.81 135.43 322.86 134.52C328.43 132.85 332.19 132.37 334.21 133.3C336.71 134.44 336.43 137.43 333.42 142.26ZM332.58 141.74C335.3 137.34 335.52 135 333.79 134.21C332.08 133.42 328.47 133.88 323.14 135.48C320.24 136.35 316.94 138.27 312.63 141.4C311.55 142.19 310.45 143.02 308.98 144.14C298.9 151.86 296.36 153.5 293 153.5C289.98 153.5 287.5 157.52 288 161.44C288.56 165.94 292.62 168.22 299.89 166.51C314.37 163.11 324.75 154.33 332.58 141.74ZM461.17 29.53C475.05 34.49 481.92 34.49 492.79 29.54C495.81 28.17 498.26 26.6 503.79 22.72C509.36 18.8 511.84 17.21 514.93 15.8C519.07 13.92 522.71 13.42 526.15 14.52C530.07 15.78 532.35 26.82 532.93 42.97C533.43 57.17 532.41 71.9 530.47 77.17C528.65 82.1 524.61 85.34 518.96 87.19C514.763 88.475 510.389 89.0893 506 89.01C500.21 89.01 497 91.41 493.8 96.65C493.43 97.24 492.25 99.25 492.09 99.52C490.34 102.42 489.04 103.85 487.16 104.47C486.22 104.79 485.09 105.3 483.29 106.21L480.86 107.44C479.83 107.97 478.99 108.38 478.16 108.78C471.73 111.88 466.43 113.5 461 113.5C455.29 113.5 450.96 115.59 446.98 119.42C445.82 120.53 442.78 123.95 442.35 124.36C439.81 126.8 436.42 128.6 431.5 130.46C430.1 130.98 425.52 132.59 425.25 132.68L423.19 133.46C422.3 133.82 421.41 134.09 420.49 134.27C414.94 135.41 409.35 133.73 402.51 129.85C401.24 129.12 397.38 126.79 396.75 126.43C394.7 125.27 392.63 124.9 387.66 124.53L385.93 124.38C381.15 123.98 378.25 123.24 375.71 121.41C370.71 117.8 368.94 113.65 370.06 109.08C371.39 103.66 376.56 98.06 384.91 91.8C387.04 90.2125 389.207 88.6754 391.41 87.19C391.08 87.42 395.74 84.27 396.71 83.59C399.44 81.68 401.51 79.69 409.46 71.55L410.55 70.45C414.04 66.89 416.44 64.56 418.67 62.62C421.57 60.12 423.39 56.67 426.17 49.57L426.8 47.96C429.5 41.04 431.08 37.96 433.67 35.63C435.09 34.35 440.35 29.09 441.6 28.13C445.58 25.13 449.61 25.4 461.17 29.53ZM460.83 30.47C449.57 26.45 445.83 26.19 442.21 28.94C441.02 29.84 435.81 35.05 434.33 36.37C431.91 38.55 430.37 41.56 427.73 48.32L427.1 49.93C424.27 57.19 422.38 60.73 419.33 63.38C416.145 66.1979 413.089 69.1575 410.17 72.25C402.15 80.45 400.09 82.45 397.29 84.41C396.3 85.1 391.64 88.25 391.98 88.01C389.48 89.72 387.46 91.14 385.51 92.6C377.34 98.73 372.28 104.2 371.03 109.32C370.01 113.47 371.61 117.22 376.29 120.59C378.65 122.29 381.4 122.99 386.01 123.39L387.74 123.52C392.86 123.92 395.02 124.3 397.24 125.57C397.89 125.93 401.74 128.27 403 128.97C409.66 132.75 415.04 134.37 420.29 133.29C421.15 133.12 421.99 132.87 422.81 132.54C423.505 132.262 424.206 131.995 424.91 131.74C425.19 131.64 429.77 130.04 431.15 129.52C435.95 127.72 439.23 125.96 441.65 123.64C442.05 123.26 445.09 119.84 446.28 118.7C450.44 114.7 455 112.5 461 112.5C466.25 112.5 471.42 110.91 477.73 107.88C478.55 107.48 479.38 107.08 480.41 106.55C480.53 106.49 482.34 105.56 482.84 105.32C484.68 104.39 485.84 103.86 486.84 103.52C488.44 103 489.6 101.7 491.23 99L492.93 96.12C496.32 90.62 499.8 88.01 506 88.01C510.45 88.01 514.73 87.52 518.64 86.24C524.04 84.48 527.84 81.44 529.54 76.83C531.41 71.72 532.44 57.08 531.93 43C531.37 27.47 529.12 16.52 525.85 15.48C522.67 14.46 519.28 14.93 515.35 16.71C512.33 18.08 509.88 19.65 504.35 23.54C498.78 27.46 496.3 29.04 493.21 30.46C482.08 35.51 474.95 35.51 460.83 30.47ZM475 51C480.38 51 482.55 50.79 484.72 50.04C485.98 49.61 494.67 45.24 499.6 43.08C501.5 42.26 503.16 40.64 506.2 37.04C508.76 34 509.39 33.29 510.6 32.2C514.3 28.85 517.67 28.92 520.82 33.43C527.05 42.33 526.43 49.37 520.89 60.45C519.98 62.2406 519.146 64.0689 518.39 65.93C518.07 66.73 517.39 68.63 517.3 68.83C517.13 69.28 516.96 69.64 516.76 70C516.13 71.14 515.2 72.21 512.71 74.7C510.31 77.1 507.55 77.97 501.03 79.03C499.22 79.33 498.83 79.39 498.03 79.54C492.01 80.64 488.43 82.23 485.79 85.61C482.22 90.2 477.89 93.09 470.81 96.35C470.26 96.59 469.71 96.85 469.01 97.15L467.23 97.95C464.573 99.0637 462 100.367 459.53 101.85C456.96 103.45 454.74 104.2 450.11 105.31C441.53 107.37 437.83 109.07 432.74 114.67C427.62 120.31 422.57 122.31 416.11 121.37C410.75 120.58 405.48 118.36 392.55 111.89C386.25 108.74 386.12 104.11 391.05 98.33C394.43 94.39 394.57 94.27 410.45 81.89C418.57 75.56 423.42 71.32 427.08 67.01C429.61 64.03 431.28 61.28 432.04 58.71C437.54 40.41 444.54 36.73 454.82 43.15C456.77 44.37 461.43 47.7 462 48.05C465.36 50.2 468.52 51 475 51ZM475 53C468.16 53 464.63 52.11 460.92 49.74C460.29 49.34 455.65 46.03 453.76 44.84C444.71 39.19 439.1 42.14 433.96 59.29C433.1 62.16 431.29 65.14 428.61 68.3C424.83 72.75 419.91 77.05 411.67 83.47C396.01 95.68 395.81 95.85 392.57 99.63C388.4 104.53 388.48 107.63 393.45 110.11C406.16 116.46 411.34 118.65 416.39 119.39C422.17 120.23 426.57 118.49 431.26 113.33C436.68 107.37 440.71 105.51 449.64 103.37C454.07 102.3 456.14 101.61 458.47 100.15C461.016 98.6206 463.67 97.2771 466.41 96.13L468.19 95.33L469.97 94.53C476.79 91.4 480.88 88.66 484.21 84.39C487.21 80.52 491.21 78.75 497.67 77.57C498.5 77.42 498.88 77.36 500.71 77.06C506.81 76.06 509.31 75.28 511.29 73.29C513.65 70.93 514.5 69.95 515.01 69.03C515.16 68.76 515.3 68.47 515.45 68.09C515.51 67.94 516.2 66.03 516.54 65.19C517.18 63.59 517.99 61.79 519.11 59.55C524.35 49.06 524.91 42.75 519.18 34.57C516.78 31.13 514.81 31.09 511.94 33.68C510.83 34.68 510.21 35.38 507.72 38.33C504.48 42.18 502.68 43.92 500.4 44.92C495.58 47.02 486.78 51.45 485.37 51.93C482.93 52.77 480.58 53 475 53ZM462.3 61.6C467.77 65.5 472.64 65.32 480.53 62.48C485.92 60.54 486.45 60.38 488.23 60.38C490.73 60.37 492.44 61.74 493.47 64.84C495.13 69.82 491.15 73.36 481.17 77.52C478.47 78.65 464.92 83.7 461.17 85.25C453.31 88.49 447.24 91.67 442.3 95.4C429.28 105.24 423.94 107.33 418.59 105.08C417.33 104.522 416.119 103.86 414.97 103.1L412.98 101.82C412.24 101.342 411.493 100.876 410.74 100.42C407.41 98.42 407.92 96.14 411.59 93.08C412.94 91.95 422.25 85.47 425.12 83.17C432.22 77.48 437.03 71.7 439.53 64.83C442.6 56.38 444.42 52.73 446.33 51.44C448.06 50.28 449.69 50.91 452.51 53.34C453.14 53.9 455.91 56.42 456.62 57.04C458.55 58.74 460.33 60.19 462.29 61.59L462.3 61.6ZM461.7 62.4C459.72 60.98 457.91 59.52 455.96 57.8C455.23 57.16 452.48 54.64 451.86 54.1C449.36 51.94 448.11 51.45 446.89 52.27C445.23 53.38 443.45 56.97 440.47 65.17C437.9 72.24 432.97 78.16 425.75 83.95C422.84 86.28 413.54 92.75 412.23 93.85C409.01 96.53 408.67 98.02 411.26 99.57L413.52 100.97L415.51 102.25C416.98 103.18 417.99 103.75 418.98 104.16C423.88 106.23 428.94 104.23 441.7 94.6C446.72 90.81 452.85 87.6 460.8 84.32C464.56 82.77 478.1 77.72 480.8 76.6C490.3 72.63 493.94 69.4 492.53 65.16C491.63 62.45 490.28 61.36 488.23 61.37C486.63 61.37 486.08 61.54 480.87 63.42C472.7 66.36 467.53 66.56 461.71 62.41L461.7 62.4Z" fill="#5F4549" fill-opacity="0.4"/>
</svg>
